<svg xmlns="http://www.w3.org/2000/svg" viewBox="0 0 250 51"><defs><style>.a{fill:#e5004b;}.b{fill:#838480;}</style></defs><polygon class="a" points="32.42 10.41 24.43 22.25 32.44 33.99 38.13 33.99 30.2 22.25 38.13 10.41 32.42 10.41"/><polygon class="a" points="20.26 0.46 14.28 13.3 0.05 12.6 2.99 17.49 17.25 18.24 23.19 5.33 20.26 0.46"/><polygon class="a" points="2.91 27 0 31.89 14.15 31.08 20.27 43.95 23.19 39.04 17.09 26.13 2.91 27"/><path class="a" d="M64.5,33.56,58.7,23.29l-2.92,3.48v6.79H51.37V11h4.41v9.83l8-9.83H69.1l-7.49,9,8,13.61Z"/><path class="a" d="M86,33.56,77.09,19.7V33.56H72.68V11h3.93l8.94,13.83V11H90V33.56Z"/><path class="a" d="M95.45,33.56V11h4.41V33.56Z"/><path class="a" d="M117.39,33.56V24.11h-7.64v9.45h-4.41V11h4.41v9.23h7.64V11h4.41V33.56Z"/><path class="a" d="M141,31.28a8.77,8.77,0,0,1-12.2,0c-2.29-2.28-2.22-5.11-2.22-9s-.07-6.72,2.22-9a8.74,8.74,0,0,1,12.2,0c2.28,2.28,2.25,5.1,2.25,9S143.23,29,141,31.28Zm-3.27-15.35a3.65,3.65,0,0,0-2.82-1.21A3.73,3.73,0,0,0,132,15.93c-.86.95-1.08,2-1.08,6.34s.22,5.39,1.08,6.34a3.72,3.72,0,0,0,2.85,1.21,3.65,3.65,0,0,0,2.82-1.21c.86-.95,1.12-2,1.12-6.34s-.25-5.39-1.11-6.34Z"/><path class="a" d="M155.82,33.56h-3.3L145.07,11h4.57l4.53,14.71L158.7,11h4.6Z"/><path class="a" d="M179.6,33.56,170.66,19.7V33.56h-4.41V11h3.93l8.94,13.83V11h4.41V33.56Z"/><path class="a" d="M197.65,24.3v9.26h-4.38V24.3L186.48,11h4.79l4.22,9.1,4.15-9.1h4.79Z"/><path class="a" d="M206.9,33.56V28.87h4.73v4.69Z"/><path class="a" d="M224.19,33.75a8.28,8.28,0,0,1-6.09-2.47,6.58,6.58,0,0,1-1.84-3.4,31,31,0,0,1-.38-5.61,31.12,31.12,0,0,1,.38-5.62,6.38,6.38,0,0,1,1.84-3.39,8.28,8.28,0,0,1,6.09-2.47c4.34,0,7.54,2.53,8.3,7.13H228a3.71,3.71,0,0,0-3.8-3.2,3.48,3.48,0,0,0-2.82,1.17c-.92,1-1.12,2-1.12,6.38s.2,5.39,1.12,6.37a3.48,3.48,0,0,0,2.82,1.18,3.72,3.72,0,0,0,3.8-3.21h4.47A8,8,0,0,1,224.19,33.75Z"/><path class="a" d="M235.16,33.56V30l9.64-15.09h-9.23V11H250v3.49l-9.67,15.16H250v3.93Z"/><rect class="b" x="238.73" y="41.62" width="1.43" height="7.03"/><rect class="b" x="247.52" y="41.62" width="1.43" height="7.03"/><path class="b" d="M240.59,48.65Zm4.62-7-4.59,7h1.56l4.61-7Z"/><path class="b" d="M52.46,45.65v3H51.39v-8h2.35a4.29,4.29,0,0,1,1.31.17,2.46,2.46,0,0,1,.92.5,1.92,1.92,0,0,1,.55.77,2.8,2.8,0,0,1,.18,1,2.53,2.53,0,0,1-.19,1,2.17,2.17,0,0,1-.57.8,2.78,2.78,0,0,1-.93.52,4.14,4.14,0,0,1-1.27.18Zm0-.85h1.28a2.51,2.51,0,0,0,.81-.12,1.7,1.7,0,0,0,.59-.34,1.47,1.47,0,0,0,.36-.53,1.81,1.81,0,0,0,.12-.67A1.54,1.54,0,0,0,55.16,42a2.09,2.09,0,0,0-1.42-.43H52.46Z"/><path class="b" d="M57.91,48.63V43h.56a.3.3,0,0,1,.22.06.41.41,0,0,1,.09.21l.06.87a2.58,2.58,0,0,1,.72-.91,1.55,1.55,0,0,1,1-.33A1.34,1.34,0,0,1,61,43a1,1,0,0,1,.35.15l-.12.73A.17.17,0,0,1,61,44a.63.63,0,0,1-.23,0,1.39,1.39,0,0,0-.45,0,1.28,1.28,0,0,0-.87.3,2.32,2.32,0,0,0-.58.87v3.58Z"/><path class="b" d="M64.65,42.92a3.06,3.06,0,0,1,1.12.2,2.29,2.29,0,0,1,.84.59,2.48,2.48,0,0,1,.53.91,3.85,3.85,0,0,1,0,2.39,2.48,2.48,0,0,1-.53.91,2.15,2.15,0,0,1-.84.58,2.87,2.87,0,0,1-1.12.21,2.82,2.82,0,0,1-1.11-.21,2.26,2.26,0,0,1-.85-.58,2.48,2.48,0,0,1-.53-.91,3.85,3.85,0,0,1,0-2.39,2.48,2.48,0,0,1,.53-.91,2.41,2.41,0,0,1,.85-.59A3,3,0,0,1,64.65,42.92Zm0,5a1.46,1.46,0,0,0,1.25-.55,3.17,3.17,0,0,0,0-3.12,1.45,1.45,0,0,0-1.25-.57,1.67,1.67,0,0,0-.73.15,1.25,1.25,0,0,0-.52.42,1.84,1.84,0,0,0-.31.66,3.59,3.59,0,0,0-.1.9,3.46,3.46,0,0,0,.1.89,1.81,1.81,0,0,0,.31.67,1.4,1.4,0,0,0,.52.41A1.67,1.67,0,0,0,64.65,47.93Z"/><path class="b" d="M67.7,43h.81a.31.31,0,0,1,.19.06.36.36,0,0,1,.11.14l1.43,3.62a3,3,0,0,1,.12.4c0,.13.06.26.08.39,0-.13.06-.26.1-.39a2.07,2.07,0,0,1,.13-.4l1.44-3.62a.33.33,0,0,1,.11-.15A.35.35,0,0,1,72.4,43h.77l-2.29,5.62H70Z"/><path class="b" d="M76.22,42.92a3,3,0,0,1,1.11.2,2.32,2.32,0,0,1,.85.59,2.48,2.48,0,0,1,.53.91,3.85,3.85,0,0,1,0,2.39,2.48,2.48,0,0,1-.53.91,2.19,2.19,0,0,1-.85.58,3,3,0,0,1-2.22,0,2.19,2.19,0,0,1-.85-.58,2.65,2.65,0,0,1-.54-.91,3.85,3.85,0,0,1,0-2.39,2.65,2.65,0,0,1,.54-.91,2.32,2.32,0,0,1,.85-.59A3,3,0,0,1,76.22,42.92Zm0,5a1.43,1.43,0,0,0,1.24-.55,3.17,3.17,0,0,0,0-3.12,1.41,1.41,0,0,0-1.24-.57,1.67,1.67,0,0,0-.73.15,1.25,1.25,0,0,0-.52.42,1.84,1.84,0,0,0-.31.66,3.59,3.59,0,0,0-.1.9,3.46,3.46,0,0,0,.1.89,1.81,1.81,0,0,0,.31.67,1.4,1.4,0,0,0,.52.41A1.67,1.67,0,0,0,76.22,47.93Z"/><path class="b" d="M84,43.43a.45.45,0,0,1,0,.2.64.64,0,0,1-.1.18l-3,4h3.07v.77H79.69v-.41a.59.59,0,0,1,0-.17.69.69,0,0,1,.1-.19l3.06-4.08h-3V43H84Z"/><path class="b" d="M86.1,43v3.58a1.52,1.52,0,0,0,.29,1,1.12,1.12,0,0,0,.89.35,1.7,1.7,0,0,0,.82-.21,2.32,2.32,0,0,0,.7-.57V43h1v5.62H89.2a.24.24,0,0,1-.26-.21l-.08-.6a3.13,3.13,0,0,1-.82.65,2.12,2.12,0,0,1-1.05.25,1.92,1.92,0,0,1-.81-.16,1.5,1.5,0,0,1-.59-.43,1.72,1.72,0,0,1-.36-.67,3,3,0,0,1-.12-.87V43Z"/><path class="b" d="M92.52,43v6a2.08,2.08,0,0,1-.09.63,1.4,1.4,0,0,1-.28.51,1.27,1.27,0,0,1-.5.34,1.75,1.75,0,0,1-.72.13,1.79,1.79,0,0,1-.34,0l-.3-.08,0-.54a.13.13,0,0,1,0-.09l.12,0h.22a.76.76,0,0,0,.61-.2.9.9,0,0,0,.19-.65V43Zm.22-1.77a.6.6,0,0,1-.06.27.87.87,0,0,1-.38.38.86.86,0,0,1-.27,0,.76.76,0,0,1-.27,0,.6.6,0,0,1-.22-.16.69.69,0,0,1-.16-.22.75.75,0,0,1,0-.54.63.63,0,0,1,.16-.23.48.48,0,0,1,.22-.15.6.6,0,0,1,.27-.06.66.66,0,0,1,.27.06.54.54,0,0,1,.22.15.63.63,0,0,1,.16.23A.6.6,0,0,1,92.74,41.24Z"/><path class="b" d="M96.46,42.92a2.33,2.33,0,0,1,.93.17,2.06,2.06,0,0,1,.74.48,2.35,2.35,0,0,1,.49.79,3.25,3.25,0,0,1,.17,1.07.55.55,0,0,1-.05.31.2.2,0,0,1-.19.08H94.81a3.18,3.18,0,0,0,.15.93,1.93,1.93,0,0,0,.36.65,1.48,1.48,0,0,0,.56.4,1.81,1.81,0,0,0,.72.13,2,2,0,0,0,.64-.09,3,3,0,0,0,.46-.18l.33-.19a.4.4,0,0,1,.22-.08.22.22,0,0,1,.19.09l.28.36a1.84,1.84,0,0,1-.44.39,2.56,2.56,0,0,1-.55.27,2.93,2.93,0,0,1-.6.15,3.15,3.15,0,0,1-.61.06,2.92,2.92,0,0,1-1.08-.2,2.47,2.47,0,0,1-.85-.58A2.57,2.57,0,0,1,94,47a3.64,3.64,0,0,1-.2-1.29A3.3,3.3,0,0,1,94,44.6a2.5,2.5,0,0,1,.52-.88,2.33,2.33,0,0,1,.82-.59A2.77,2.77,0,0,1,96.46,42.92Zm0,.72a1.49,1.49,0,0,0-1.12.42,1.86,1.86,0,0,0-.51,1.14H97.9a2.13,2.13,0,0,0-.09-.63,1.39,1.39,0,0,0-.28-.49,1.16,1.16,0,0,0-.44-.32A1.48,1.48,0,0,0,96.48,43.64Z"/><path class="b" d="M106.4,46c0,.1.08.2.11.3l.12-.3.14-.28,2.69-4.89a.33.33,0,0,1,.15-.16.65.65,0,0,1,.22,0h.79v8h-.94V42.78a2.26,2.26,0,0,1,0-.25c0-.08,0-.18,0-.27l-2.72,5a.43.43,0,0,1-.39.24h-.16a.42.42,0,0,1-.38-.24l-2.79-5a2.64,2.64,0,0,1,0,.28,2.26,2.26,0,0,1,0,.25v5.85h-.94v-8h.79a.75.75,0,0,1,.23,0,.33.33,0,0,1,.15.16l2.74,4.89Z"/><path class="b" d="M114.68,42.92a3,3,0,0,1,1.11.2,2.24,2.24,0,0,1,.85.59,2.48,2.48,0,0,1,.53.91,3.85,3.85,0,0,1,0,2.39,2.48,2.48,0,0,1-.53.91,2.12,2.12,0,0,1-.85.58,3,3,0,0,1-2.22,0,2.26,2.26,0,0,1-.85-.58,2.65,2.65,0,0,1-.54-.91,4.06,4.06,0,0,1,0-2.39,2.65,2.65,0,0,1,.54-.91,2.41,2.41,0,0,1,.85-.59A3,3,0,0,1,114.68,42.92Zm0,5a1.43,1.43,0,0,0,1.24-.55,3.11,3.11,0,0,0,0-3.12,1.41,1.41,0,0,0-1.24-.57,1.67,1.67,0,0,0-.73.15,1.25,1.25,0,0,0-.52.42,1.84,1.84,0,0,0-.31.66,3.59,3.59,0,0,0-.1.9,3.46,3.46,0,0,0,.1.89,1.81,1.81,0,0,0,.31.67,1.4,1.4,0,0,0,.52.41A1.67,1.67,0,0,0,114.68,47.93Z"/><path class="b" d="M118.58,48.63V43h.56a.33.33,0,0,1,.23.06.42.42,0,0,1,.08.21l.07.87a2.56,2.56,0,0,1,.71-.91,1.56,1.56,0,0,1,1-.33,1.42,1.42,0,0,1,.42.05,1.19,1.19,0,0,1,.35.15l-.13.73c0,.1-.08.14-.17.14a.72.72,0,0,1-.24,0,1.39,1.39,0,0,0-.45,0,1.27,1.27,0,0,0-.86.3,2.11,2.11,0,0,0-.58.87v3.58Z"/><path class="b" d="M127,48.63h-.44a.52.52,0,0,1-.23-.05.25.25,0,0,1-.12-.19l-.11-.52a4.32,4.32,0,0,1-.43.36,2.07,2.07,0,0,1-.45.27,2.56,2.56,0,0,1-.49.16,2.68,2.68,0,0,1-.59.06,2,2,0,0,1-.61-.09,1.62,1.62,0,0,1-.5-.28,1.25,1.25,0,0,1-.33-.47,1.5,1.5,0,0,1-.13-.66,1.24,1.24,0,0,1,.18-.64,1.62,1.62,0,0,1,.6-.55,4,4,0,0,1,1.06-.4,7.44,7.44,0,0,1,1.62-.15V45a1.53,1.53,0,0,0-.28-1,1,1,0,0,0-.83-.33,1.82,1.82,0,0,0-.61.09,2.89,2.89,0,0,0-.43.2l-.31.21a.43.43,0,0,1-.26.09.34.34,0,0,1-.17,0,.49.49,0,0,1-.12-.13l-.18-.32a3.23,3.23,0,0,1,1-.67,3,3,0,0,1,1.19-.22,2.21,2.21,0,0,1,.84.15,1.82,1.82,0,0,1,.61.43,1.74,1.74,0,0,1,.38.68A2.63,2.63,0,0,1,127,45ZM124.41,48a1.74,1.74,0,0,0,.47-.05,1.44,1.44,0,0,0,.41-.15,2.06,2.06,0,0,0,.37-.23c.11-.1.23-.2.34-.32V46.11a7.53,7.53,0,0,0-1.16.08,3.49,3.49,0,0,0-.78.23,1,1,0,0,0-.43.33.74.74,0,0,0-.14.43.92.92,0,0,0,.07.38.68.68,0,0,0,.2.27A1.06,1.06,0,0,0,124,48,1.5,1.5,0,0,0,124.41,48Z"/><path class="b" d="M127.58,43h.81a.29.29,0,0,1,.19.06.39.39,0,0,1,.12.14l1.42,3.62a3,3,0,0,1,.12.4l.09.39.09-.39a3.1,3.1,0,0,1,.13-.4L132,43.21a.33.33,0,0,1,.11-.15.36.36,0,0,1,.19-.05h.77l-2.3,5.62h-.89Z"/><path class="b" d="M137.19,43.93a.22.22,0,0,1-.2.13.4.4,0,0,1-.19-.07l-.26-.13a2.08,2.08,0,0,0-.36-.14,1.85,1.85,0,0,0-.5-.06,1.53,1.53,0,0,0-.45.06,1,1,0,0,0-.34.17.77.77,0,0,0-.22.26.72.72,0,0,0-.08.32.53.53,0,0,0,.13.36,1,1,0,0,0,.33.25,3.53,3.53,0,0,0,.47.19l.53.17c.19.06.36.13.54.2a2.09,2.09,0,0,1,.46.28,1.2,1.2,0,0,1,.33.41,1.16,1.16,0,0,1,.13.58,1.89,1.89,0,0,1-.14.72,1.54,1.54,0,0,1-.41.57,1.89,1.89,0,0,1-.67.38,2.76,2.76,0,0,1-.91.14,3,3,0,0,1-1.06-.19,2.71,2.71,0,0,1-.81-.5l.23-.37a.23.23,0,0,1,.11-.11.25.25,0,0,1,.16,0,.35.35,0,0,1,.21.08l.27.17a2,2,0,0,0,.38.17,1.79,1.79,0,0,0,.56.08,1.6,1.6,0,0,0,.51-.08,1.25,1.25,0,0,0,.36-.2.78.78,0,0,0,.21-.3.81.81,0,0,0,.07-.35.62.62,0,0,0-.12-.39,1.46,1.46,0,0,0-.33-.26,4.17,4.17,0,0,0-.47-.19l-.54-.16q-.27-.09-.54-.21a2,2,0,0,1-.47-.28,1.59,1.59,0,0,1-.33-.43,1.41,1.41,0,0,1-.12-.61,1.47,1.47,0,0,1,.13-.62,1.52,1.52,0,0,1,.39-.52,1.93,1.93,0,0,1,.63-.36,2.45,2.45,0,0,1,.85-.13,2.78,2.78,0,0,1,1,.17,2.35,2.35,0,0,1,.76.48Z"/><path class="b" d="M139.82,40.45v4.82h.25a.36.36,0,0,0,.19,0,.66.66,0,0,0,.16-.12l1.77-1.9a1.14,1.14,0,0,1,.17-.15.38.38,0,0,1,.22-.05h.9l-2.07,2.2-.15.17a1,1,0,0,1-.17.12,1.37,1.37,0,0,1,.18.16,1.57,1.57,0,0,1,.15.19l2.2,2.78h-.89a.46.46,0,0,1-.21-.05.55.55,0,0,1-.16-.15l-1.85-2.3a.34.34,0,0,0-.17-.15.51.51,0,0,0-.25,0h-.27v2.69h-1V40.45Z"/><path class="b" d="M148.74,48.63h-.44a.54.54,0,0,1-.24-.05.27.27,0,0,1-.11-.19l-.11-.52a4.37,4.37,0,0,1-.44.36,2,2,0,0,1-.44.27,2.66,2.66,0,0,1-.5.16,2.58,2.58,0,0,1-.58.06,2.11,2.11,0,0,1-.62-.09,1.57,1.57,0,0,1-.49-.28,1.39,1.39,0,0,1-.34-.47,1.66,1.66,0,0,1-.12-.66,1.24,1.24,0,0,1,.18-.64,1.58,1.58,0,0,1,.59-.55,4.07,4.07,0,0,1,1.07-.4,7.41,7.41,0,0,1,1.61-.15V45a1.53,1.53,0,0,0-.28-1,1,1,0,0,0-.82-.33,1.78,1.78,0,0,0-.61.09,2.48,2.48,0,0,0-.43.2l-.31.21a.45.45,0,0,1-.26.09.31.31,0,0,1-.17,0,.49.49,0,0,1-.12-.13l-.18-.32a3.19,3.19,0,0,1,1-.67,3.09,3.09,0,0,1,1.2-.22,2.24,2.24,0,0,1,.84.15,1.92,1.92,0,0,1,.61.43,1.88,1.88,0,0,1,.38.68,2.93,2.93,0,0,1,.13.86ZM146.17,48a1.82,1.82,0,0,0,.48-.05,1.56,1.56,0,0,0,.41-.15,1.69,1.69,0,0,0,.36-.23,3.4,3.4,0,0,0,.34-.32V46.11a7.39,7.39,0,0,0-1.15.08,3.49,3.49,0,0,0-.78.23,1,1,0,0,0-.44.33.73.73,0,0,0-.13.43.92.92,0,0,0,.07.38.77.77,0,0,0,.19.27,1.13,1.13,0,0,0,.29.15A1.37,1.37,0,0,0,146.17,48Zm2.17-7.43L147,42a.79.79,0,0,1-.15.12.5.5,0,0,1-.19,0h-.59l.82-1.34a.64.64,0,0,1,.17-.19.62.62,0,0,1,.27,0Z"/><path class="b" d="M156.3,43.43a.45.45,0,0,1,0,.2.64.64,0,0,1-.1.18l-3,4h3.07v.77H152v-.41a.55.55,0,0,1,0-.17.69.69,0,0,1,.1-.19l3.06-4.08h-3V43h4.17Z"/><path class="b" d="M159.73,42.92a2.33,2.33,0,0,1,.93.17,2.06,2.06,0,0,1,.74.48,2.35,2.35,0,0,1,.49.79,3.25,3.25,0,0,1,.17,1.07.66.66,0,0,1-.05.31.2.2,0,0,1-.19.08h-3.74a3.18,3.18,0,0,0,.15.93,1.77,1.77,0,0,0,.36.65,1.48,1.48,0,0,0,.56.4,1.81,1.81,0,0,0,.72.13,2,2,0,0,0,.64-.09,3,3,0,0,0,.46-.18l.33-.19a.37.37,0,0,1,.22-.08.22.22,0,0,1,.19.09l.28.36a1.84,1.84,0,0,1-.44.39,2.56,2.56,0,0,1-.55.27,2.93,2.93,0,0,1-.6.15,3.23,3.23,0,0,1-.61.06,2.92,2.92,0,0,1-1.08-.2,2.38,2.38,0,0,1-.85-.58,2.73,2.73,0,0,1-.56-.94,3.89,3.89,0,0,1-.19-1.29,3.3,3.3,0,0,1,.18-1.1,2.64,2.64,0,0,1,.51-.88,2.46,2.46,0,0,1,.83-.59A2.77,2.77,0,0,1,159.73,42.92Zm0,.72a1.49,1.49,0,0,0-1.12.42,1.86,1.86,0,0,0-.51,1.14h3a2.13,2.13,0,0,0-.09-.63,1.39,1.39,0,0,0-.28-.49,1.12,1.12,0,0,0-.45-.32A1.4,1.4,0,0,0,159.75,43.64Z"/><path class="b" d="M163.32,48.63V43h.59a.25.25,0,0,1,.27.2l.07.58a2.9,2.9,0,0,1,.69-.63,1.68,1.68,0,0,1,.9-.24,1.31,1.31,0,0,1,.92.31,1.73,1.73,0,0,1,.51.86,1.85,1.85,0,0,1,.31-.53,1.88,1.88,0,0,1,.43-.37,2.28,2.28,0,0,1,.51-.21,2.51,2.51,0,0,1,.55-.06,2,2,0,0,1,.79.14,1.5,1.5,0,0,1,.58.41,1.68,1.68,0,0,1,.37.67,2.86,2.86,0,0,1,.13.91v3.58h-1V45.05a1.51,1.51,0,0,0-.28-1,1.05,1.05,0,0,0-.84-.34,1.22,1.22,0,0,0-.47.08A1.19,1.19,0,0,0,168,44a1.27,1.27,0,0,0-.27.42,1.78,1.78,0,0,0-.09.59v3.58h-1V45.05a1.58,1.58,0,0,0-.27-1,1,1,0,0,0-.8-.33,1.27,1.27,0,0,0-.68.19,2.07,2.07,0,0,0-.57.54v4.19Z"/><path class="b" d="M175.65,43.93a.22.22,0,0,1-.2.13.4.4,0,0,1-.19-.07l-.26-.13a2.08,2.08,0,0,0-.36-.14,1.85,1.85,0,0,0-.5-.06,1.53,1.53,0,0,0-.45.06,1.08,1.08,0,0,0-.34.17.77.77,0,0,0-.22.26.71.71,0,0,0-.07.32.52.52,0,0,0,.12.36,1,1,0,0,0,.33.25,3.53,3.53,0,0,0,.47.19l.53.17c.19.06.36.13.54.2a2.09,2.09,0,0,1,.46.28,1.2,1.2,0,0,1,.33.41,1.16,1.16,0,0,1,.13.58,1.89,1.89,0,0,1-.14.72,1.54,1.54,0,0,1-.41.57,1.89,1.89,0,0,1-.67.38,2.76,2.76,0,0,1-.91.14,3,3,0,0,1-1.06-.19A2.71,2.71,0,0,1,172,48l.23-.37a.29.29,0,0,1,.11-.11.25.25,0,0,1,.16,0,.35.35,0,0,1,.21.08l.27.17a2,2,0,0,0,.38.17,1.79,1.79,0,0,0,.56.08,1.56,1.56,0,0,0,.51-.08,1.25,1.25,0,0,0,.36-.2.69.69,0,0,0,.21-.3.81.81,0,0,0,.07-.35.62.62,0,0,0-.12-.39,1.46,1.46,0,0,0-.33-.26,4.17,4.17,0,0,0-.47-.19l-.54-.16q-.27-.09-.54-.21a2,2,0,0,1-.47-.28,1.59,1.59,0,0,1-.33-.43,1.41,1.41,0,0,1-.12-.61,1.47,1.47,0,0,1,.13-.62,1.52,1.52,0,0,1,.39-.52,1.93,1.93,0,0,1,.63-.36,2.45,2.45,0,0,1,.85-.13,2.78,2.78,0,0,1,1,.17,2.51,2.51,0,0,1,.77.48Z"/><path class="b" d="M178.28,40.45v4.82h.25a.36.36,0,0,0,.19,0,.66.66,0,0,0,.16-.12l1.77-1.9a1.14,1.14,0,0,1,.17-.15A.38.38,0,0,1,181,43h.9l-2.07,2.2-.15.17a1,1,0,0,1-.17.12.93.93,0,0,1,.18.16,1.57,1.57,0,0,1,.15.19l2.2,2.78h-.89a.46.46,0,0,1-.21-.05.55.55,0,0,1-.16-.15L179,46.13a.37.37,0,0,0-.16-.15.57.57,0,0,0-.25,0h-.28v2.69h-1V40.45Z"/><path class="b" d="M187.2,48.63h-.44a.46.46,0,0,1-.23-.05.25.25,0,0,1-.12-.19l-.11-.52a4.32,4.32,0,0,1-.43.36,2.33,2.33,0,0,1-.45.27,2.44,2.44,0,0,1-.5.16,2.58,2.58,0,0,1-.58.06,2,2,0,0,1-.61-.09,1.62,1.62,0,0,1-.5-.28,1.39,1.39,0,0,1-.34-.47,1.66,1.66,0,0,1-.12-.66,1.24,1.24,0,0,1,.18-.64,1.58,1.58,0,0,1,.59-.55,4.07,4.07,0,0,1,1.07-.4,7.44,7.44,0,0,1,1.62-.15V45a1.59,1.59,0,0,0-.28-1,1,1,0,0,0-.83-.33,1.78,1.78,0,0,0-.61.09,2.48,2.48,0,0,0-.43.2l-.31.21a.45.45,0,0,1-.26.09.34.34,0,0,1-.17,0,.49.49,0,0,1-.12-.13L183,43.8a3.31,3.31,0,0,1,1-.67,3.09,3.09,0,0,1,1.2-.22,2.24,2.24,0,0,1,.84.15,1.82,1.82,0,0,1,.61.43,1.88,1.88,0,0,1,.38.68,2.93,2.93,0,0,1,.13.86ZM184.63,48a1.77,1.77,0,0,0,.48-.05,1.56,1.56,0,0,0,.41-.15,1.69,1.69,0,0,0,.36-.23,3.49,3.49,0,0,0,.35-.32V46.11a7.43,7.43,0,0,0-1.16.08,3.49,3.49,0,0,0-.78.23,1,1,0,0,0-.44.33.73.73,0,0,0-.13.43.92.92,0,0,0,.07.38.77.77,0,0,0,.19.27,1.32,1.32,0,0,0,.29.15A1.37,1.37,0,0,0,184.63,48Zm2.17-7.43L185.5,42a.79.79,0,0,1-.15.12.5.5,0,0,1-.19,0h-.59l.82-1.34a.81.81,0,0,1,.17-.19.62.62,0,0,1,.27,0Z"/><path class="b" d="M191.86,40.45v4.82h.26a.34.34,0,0,0,.18,0,.51.51,0,0,0,.16-.12l1.78-1.9a.8.8,0,0,1,.17-.15.36.36,0,0,1,.22-.05h.9l-2.07,2.2-.16.17a1,1,0,0,1-.16.12l.18.16a1.57,1.57,0,0,1,.15.19l2.2,2.78h-.89a.46.46,0,0,1-.21-.05.45.45,0,0,1-.16-.15l-1.85-2.3a.38.38,0,0,0-.17-.15.54.54,0,0,0-.25,0h-.28v2.69h-1V40.45Z"/><path class="b" d="M196.65,48.63V43h.59a.25.25,0,0,1,.27.2l.08.61a2.84,2.84,0,0,1,.82-.65,2.08,2.08,0,0,1,1-.25,2,2,0,0,1,.81.15,1.53,1.53,0,0,1,.59.43,1.84,1.84,0,0,1,.36.68,3,3,0,0,1,.12.87v3.58h-1V45.05a1.46,1.46,0,0,0-.29-1,1.07,1.07,0,0,0-.89-.35,1.7,1.7,0,0,0-.82.21,2.83,2.83,0,0,0-.7.57v4.14Z"/><path class="b" d="M204.15,41.24a.6.6,0,0,1-.06.27.87.87,0,0,1-.38.38.86.86,0,0,1-.27,0,.76.76,0,0,1-.27,0,.73.73,0,0,1-.23-.16.86.86,0,0,1-.15-.22.75.75,0,0,1,0-.54.76.76,0,0,1,.15-.23.57.57,0,0,1,.23-.15.6.6,0,0,1,.27-.06.66.66,0,0,1,.27.06.54.54,0,0,1,.22.15.63.63,0,0,1,.16.23A.6.6,0,0,1,204.15,41.24ZM203.92,43v5.62h-1V43Z"/><path class="b" d="M205.67,48.63V40.45h1v3.31a3.27,3.27,0,0,1,.8-.61,2.33,2.33,0,0,1,1.83-.08,1.7,1.7,0,0,1,.59.43,2,2,0,0,1,.35.68,2.94,2.94,0,0,1,.13.87v3.58h-1V45.05a1.52,1.52,0,0,0-.29-1,1.08,1.08,0,0,0-.89-.35,1.64,1.64,0,0,0-.82.21,2.7,2.7,0,0,0-.71.57v4.14Z"/><path class="b" d="M214.11,42.92a3.06,3.06,0,0,1,1.12.2,2.29,2.29,0,0,1,.84.59,2.48,2.48,0,0,1,.53.91,3.85,3.85,0,0,1,0,2.39,2.48,2.48,0,0,1-.53.91,2.15,2.15,0,0,1-.84.58,2.87,2.87,0,0,1-1.12.21A2.82,2.82,0,0,1,213,48.5a2.15,2.15,0,0,1-.84-.58,2.37,2.37,0,0,1-.54-.91,3.85,3.85,0,0,1,0-2.39,2.37,2.37,0,0,1,.54-.91,2.29,2.29,0,0,1,.84-.59A3,3,0,0,1,214.11,42.92Zm0,5a1.46,1.46,0,0,0,1.25-.55,3.17,3.17,0,0,0,0-3.12,1.45,1.45,0,0,0-1.25-.57,1.67,1.67,0,0,0-.73.15,1.25,1.25,0,0,0-.52.42,1.84,1.84,0,0,0-.31.66,3.59,3.59,0,0,0-.1.9,3.46,3.46,0,0,0,.1.89,1.81,1.81,0,0,0,.31.67,1.4,1.4,0,0,0,.52.41A1.67,1.67,0,0,0,214.11,47.93Z"/><path class="b" d="M217.16,43H218a.31.31,0,0,1,.19.06.36.36,0,0,1,.11.14l1.43,3.62a3,3,0,0,1,.12.4c0,.13.06.26.08.39,0-.13.06-.26.1-.39a3,3,0,0,1,.12-.4l1.45-3.62a.33.33,0,0,1,.11-.15.35.35,0,0,1,.18-.05h.77l-2.29,5.62h-.89Z"/><path class="b" d="M223.55,48.63V43h.59a.23.23,0,0,1,.26.2l.08.61a3.13,3.13,0,0,1,.82-.65,2.3,2.3,0,0,1,1.86-.1,1.7,1.7,0,0,1,.59.43,2.19,2.19,0,0,1,.36.68,3,3,0,0,1,.12.87v3.58h-1V45.05a1.52,1.52,0,0,0-.29-1,1.08,1.08,0,0,0-.89-.35,1.64,1.64,0,0,0-.82.21,2.66,2.66,0,0,0-.7.57v4.14Z"/><path class="b" d="M233.85,48.63h-.44a.52.52,0,0,1-.23-.05.25.25,0,0,1-.12-.19l-.11-.52a4.32,4.32,0,0,1-.43.36,2.07,2.07,0,0,1-.45.27,2.56,2.56,0,0,1-.49.16,2.68,2.68,0,0,1-.59.06,2,2,0,0,1-.61-.09,1.62,1.62,0,0,1-.5-.28,1.25,1.25,0,0,1-.33-.47,1.5,1.5,0,0,1-.13-.66,1.24,1.24,0,0,1,.18-.64,1.62,1.62,0,0,1,.6-.55,4,4,0,0,1,1.06-.4,7.44,7.44,0,0,1,1.62-.15V45a1.53,1.53,0,0,0-.28-1,1,1,0,0,0-.83-.33,1.82,1.82,0,0,0-.61.09,2.89,2.89,0,0,0-.43.2l-.31.21a.43.43,0,0,1-.26.09.34.34,0,0,1-.17,0,.49.49,0,0,1-.12-.13l-.18-.32a3.23,3.23,0,0,1,1-.67,3,3,0,0,1,1.19-.22,2.21,2.21,0,0,1,.84.15,1.82,1.82,0,0,1,.61.43,1.74,1.74,0,0,1,.38.68,2.63,2.63,0,0,1,.13.86ZM231.29,48a1.74,1.74,0,0,0,.47-.05,1.44,1.44,0,0,0,.41-.15,2.06,2.06,0,0,0,.37-.23c.11-.1.23-.2.34-.32V46.11a7.53,7.53,0,0,0-1.16.08,3.49,3.49,0,0,0-.78.23,1,1,0,0,0-.43.33.74.74,0,0,0-.14.43.92.92,0,0,0,.07.38.68.68,0,0,0,.2.27,1.06,1.06,0,0,0,.28.15A1.5,1.5,0,0,0,231.29,48Z"/></svg>