<svg id="logo" xmlns="http://www.w3.org/2000/svg" viewBox="0 0 230 42"><defs><style>.cls-1{fill:#e5004b;}.cls-2{fill:none;}.cls-3{fill:#838480;}</style></defs><polygon class="cls-1" points="30.57 9.2 23.28 20 30.58 30.71 35.77 30.71 28.54 20 35.77 9.2 30.57 9.2"/><polygon class="cls-1" points="19.48 0.12 14.02 11.84 1.04 11.2 3.73 15.66 16.73 16.34 22.15 4.57 19.48 0.12"/><polygon class="cls-1" points="3.65 24.33 1 28.79 13.9 28.05 19.48 39.78 22.14 35.31 16.59 23.53 3.65 24.33"/><path class="cls-1" d="M59.82,23.32,54.53,14l-2.66,3.18v6.19h-4V2.73h4v9l7.26-9H64l-6.83,8.18,7.32,12.41Z"/><path class="cls-1" d="M79.46,23.32,71.3,10.68V23.32h-4V2.73h3.59L79,15.34V2.73h4V23.32Z"/><path class="cls-1" d="M88.05,23.32V2.73h4V23.32Z"/><path class="cls-1" d="M108.06,23.32V14.7h-7v8.62h-4V2.73h4v8.42h7V2.73h4V23.32Z"/><path class="cls-1" d="M129.55,21.24a8,8,0,0,1-11.14,0c-2.08-2.08-2-4.66-2-8.22s-.06-6.13,2-8.21a8,8,0,0,1,11.14,0c2.08,2.08,2,4.66,2,8.21S131.63,19.16,129.55,21.24Zm-3-14A3.37,3.37,0,0,0,124,6.14a3.42,3.42,0,0,0-2.6,1.1c-.78.87-1,1.82-1,5.78s.2,4.92,1,5.79a3.42,3.42,0,0,0,2.6,1.1,3.37,3.37,0,0,0,2.58-1.1c.78-.87,1-1.82,1-5.79S127.35,8.11,126.57,7.24Z"/><path class="cls-1" d="M143.11,23.32h-3L133.3,2.73h4.17l4.13,13.42,4.14-13.42h4.19Z"/><path class="cls-1" d="M164.8,23.32l-8.16-12.64V23.32h-4V2.73h3.59l8.15,12.61V2.73h4V23.32Z"/><path class="cls-1" d="M181.25,14.88v8.44h-4V14.88L171.07,2.73h4.37l3.85,8.3,3.78-8.3h4.37Z"/><path class="cls-1" d="M189.7,23.32V19H194v4.28Z"/><path class="cls-1" d="M205.46,23.49a7.58,7.58,0,0,1-5.56-2.25,6,6,0,0,1-1.67-3.1,27.21,27.21,0,0,1-.35-5.12,27.35,27.35,0,0,1,.35-5.12,5.86,5.86,0,0,1,1.67-3.09,7.59,7.59,0,0,1,5.56-2.26A7.25,7.25,0,0,1,213,9.06H209a3.39,3.39,0,0,0-3.47-2.92,3.18,3.18,0,0,0-2.57,1.07c-.84.9-1,1.82-1,5.81s.17,4.92,1,5.82a3.18,3.18,0,0,0,2.57,1.07A3.39,3.39,0,0,0,209,17H213A7.26,7.26,0,0,1,205.46,23.49Z"/><path class="cls-1" d="M215.46,23.32V20.08l8.8-13.76h-8.42V2.73H229V5.91l-8.82,13.83H229v3.58Z"/><rect class="cls-2" x="47.03" y="29.76" width="181.32" height="12.12"/><path class="cls-3" d="M50.65,33.88H48.79v2.89H48v-7h2.61a2.07,2.07,0,1,1,0,4.13Zm-.06-3.46H48.8v2.79h1.79a1.4,1.4,0,1,0,0-2.79Z"/><path class="cls-3" d="M57,32.85a1,1,0,0,0-.84-.36A1.18,1.18,0,0,0,55,33.79v3h-.71V31.92H55v.59a1.63,1.63,0,0,1,1.36-.65,1.51,1.51,0,0,1,1.16.45Z"/><path class="cls-3" d="M61.28,36.28a2,2,0,0,1-2.77,0,2.6,2.6,0,0,1-.59-1.94,2.56,2.56,0,0,1,.59-1.93,1.9,1.9,0,0,1,1.39-.55,1.86,1.86,0,0,1,1.38.55,2.57,2.57,0,0,1,.6,1.93A2.61,2.61,0,0,1,61.28,36.28Zm-.5-3.43a1.21,1.21,0,0,0-.88-.36,1.2,1.2,0,0,0-.88.36,2.07,2.07,0,0,0-.4,1.49,2.1,2.1,0,0,0,.4,1.5,1.2,1.2,0,0,0,.88.36,1.21,1.21,0,0,0,.88-.36,2.1,2.1,0,0,0,.39-1.5A2.07,2.07,0,0,0,60.78,32.85Z"/><path class="cls-3" d="M65,36.77h-.63l-1.78-4.85h.77l1.32,3.9,1.33-3.9h.77Z"/><path class="cls-3" d="M71,36.28a2,2,0,0,1-2.78,0,2.64,2.64,0,0,1-.59-1.94,2.61,2.61,0,0,1,.59-1.93,1.92,1.92,0,0,1,1.39-.55,1.9,1.9,0,0,1,1.39.55,2.61,2.61,0,0,1,.59,1.93A2.64,2.64,0,0,1,71,36.28Zm-.5-3.43a1.25,1.25,0,0,0-.89-.36,1.21,1.21,0,0,0-.88.36,2.11,2.11,0,0,0-.39,1.49,2.14,2.14,0,0,0,.39,1.5,1.21,1.21,0,0,0,.88.36,1.25,1.25,0,0,0,.89-.36,2.15,2.15,0,0,0,.38-1.5A2.11,2.11,0,0,0,70.45,32.85Z"/><path class="cls-3" d="M72.78,36.77v-.61l2.7-3.61H72.93v-.63H76.3v.6l-2.71,3.62H76.3v.63Z"/><path class="cls-3" d="M80.88,36.77v-.54a1.8,1.8,0,0,1-1.37.6,1.7,1.7,0,0,1-1.25-.46,1.79,1.79,0,0,1-.5-1.36V31.92h.71v3a1.12,1.12,0,0,0,1.19,1.29,1.15,1.15,0,0,0,1.21-1.29v-3h.71v4.84h-.7Z"/><path class="cls-3" d="M83,39h-.51v-.62h.38c.49,0,.65-.24.65-.71V32h.71v5.7A1.16,1.16,0,0,1,83,39Zm.48-8.41v-.8h.8v.8Z"/><path class="cls-3" d="M86.52,34.53c0,1.07.51,1.68,1.43,1.68a1.56,1.56,0,0,0,1.27-.56l.49.43a2.25,2.25,0,0,1-1.78.75c-1.28,0-2.12-.77-2.12-2.49,0-1.56.76-2.48,2-2.48s2,.91,2,2.35v.32Zm2.42-1.34a1.25,1.25,0,0,0-2.27,0,2,2,0,0,0-.15.81h2.56A1.9,1.9,0,0,0,88.94,33.19Z"/><path class="cls-3" d="M99.38,36.77V31.44l-1.92,4.23h-.64l-2-4.23v5.33h-.74v-7h.74l2.29,5,2.23-5h.75v7Z"/><path class="cls-3" d="M105.26,36.28a2,2,0,0,1-2.78,0,2.64,2.64,0,0,1-.59-1.94,2.61,2.61,0,0,1,.59-1.93,1.94,1.94,0,0,1,1.39-.55,1.88,1.88,0,0,1,1.39.55,2.61,2.61,0,0,1,.59,1.93A2.6,2.6,0,0,1,105.26,36.28Zm-.5-3.43a1.25,1.25,0,0,0-.89-.36,1.21,1.21,0,0,0-.88.36,2.11,2.11,0,0,0-.39,1.49,2.14,2.14,0,0,0,.39,1.5,1.21,1.21,0,0,0,.88.36,1.25,1.25,0,0,0,.89-.36,2.15,2.15,0,0,0,.38-1.5A2.11,2.11,0,0,0,104.76,32.85Z"/><path class="cls-3" d="M110.2,32.85a1,1,0,0,0-.84-.36,1.18,1.18,0,0,0-1.16,1.3v3h-.71V31.92h.71v.59a1.62,1.62,0,0,1,1.36-.65,1.51,1.51,0,0,1,1.16.45Z"/><path class="cls-3" d="M114.4,36.77V36.3a1.69,1.69,0,0,1-1.4.53,1.72,1.72,0,0,1-1.37-.45,1.41,1.41,0,0,1-.36-1c0-.85.59-1.4,1.67-1.4h1.46v-.47c0-.71-.35-1.06-1.24-1.06a1.27,1.27,0,0,0-1.22.55l-.48-.44a1.85,1.85,0,0,1,1.71-.72c1.3,0,1.94.56,1.94,1.61v3.3Zm0-2.24H113c-.73,0-1.08.3-1.08.86s.34.83,1.11.83a1.39,1.39,0,0,0,1.08-.33,1.11,1.11,0,0,0,.25-.84Z"/><path class="cls-3" d="M118.58,36.77H118l-1.77-4.85H117l1.32,3.9,1.33-3.9h.77Z"/><path class="cls-3" d="M122.91,36.83a2.67,2.67,0,0,1-2-.7l.47-.47a2,2,0,0,0,1.51.56c.79,0,1.29-.29,1.29-.86s-.25-.66-.81-.71l-.8-.07c-.94-.08-1.45-.5-1.45-1.3s.75-1.41,1.79-1.41a2.69,2.69,0,0,1,1.74.52l-.46.46a2.05,2.05,0,0,0-1.29-.38c-.71,0-1.09.3-1.09.79s.24.66.85.71l.78.07c.85.08,1.43.41,1.43,1.31S124.08,36.83,122.91,36.83Z"/><path class="cls-3" d="M129.57,36.77,128,34.29l-.95,1.08v1.4h-.71v-7h.71v4.69l2.19-2.52h.88l-1.64,1.85,1.93,3Z"/><path class="cls-3" d="M134.53,36.77V36.3a1.69,1.69,0,0,1-1.4.53,1.72,1.72,0,0,1-1.37-.45,1.41,1.41,0,0,1-.36-1c0-.85.59-1.4,1.67-1.4h1.46v-.47c0-.71-.35-1.06-1.24-1.06a1.27,1.27,0,0,0-1.22.55l-.48-.44a1.85,1.85,0,0,1,1.71-.72c1.3,0,1.94.56,1.94,1.61v3.3Zm0-2.24h-1.36c-.73,0-1.08.3-1.08.86s.34.83,1.11.83a1.39,1.39,0,0,0,1.08-.33,1.11,1.11,0,0,0,.25-.84Zm-1-3.62h-.66l.87-1.5h.85Z"/><path class="cls-3" d="M139.26,36.77v-.61l2.7-3.61h-2.55v-.63h3.36v.6l-2.71,3.62h2.71v.63Z"/><path class="cls-3" d="M144.74,34.53c0,1.07.5,1.68,1.43,1.68a1.59,1.59,0,0,0,1.27-.56l.48.43a2.23,2.23,0,0,1-1.77.75c-1.28,0-2.12-.77-2.12-2.49,0-1.56.76-2.48,2-2.48s2,.91,2,2.35v.32Zm2.41-1.34a1.25,1.25,0,0,0-2.27,0,1.87,1.87,0,0,0-.14.81h2.56A2.05,2.05,0,0,0,147.15,33.19Z"/><path class="cls-3" d="M155.86,36.77v-3a1.2,1.2,0,1,0-2.4-.07v3.06h-.71v-3a1.13,1.13,0,0,0-1.19-1.29,1.16,1.16,0,0,0-1.22,1.29v3h-.7V31.92h.7v.53a1.79,1.79,0,0,1,1.37-.59,1.6,1.6,0,0,1,1.49.81,1.88,1.88,0,0,1,1.6-.81,1.76,1.76,0,0,1,1.25.46,1.8,1.8,0,0,1,.52,1.35v3.1Z"/><path class="cls-3" d="M159.94,36.83a2.67,2.67,0,0,1-2-.7l.47-.47a2,2,0,0,0,1.51.56c.79,0,1.29-.29,1.29-.86s-.25-.66-.81-.71l-.8-.07c-1-.08-1.45-.5-1.45-1.3s.75-1.41,1.78-1.41a2.74,2.74,0,0,1,1.75.52l-.46.46a2.05,2.05,0,0,0-1.29-.38c-.71,0-1.09.3-1.09.79s.24.66.85.71l.78.07c.85.08,1.43.41,1.43,1.31S161.11,36.83,159.94,36.83Z"/><path class="cls-3" d="M166.61,36.77l-1.54-2.48-.95,1.08v1.4h-.71v-7h.71v4.69l2.19-2.52h.88l-1.64,1.85,1.93,3Z"/><path class="cls-3" d="M171.56,36.77V36.3a1.69,1.69,0,0,1-1.4.53,1.72,1.72,0,0,1-1.37-.45,1.41,1.41,0,0,1-.36-1c0-.85.59-1.4,1.67-1.4h1.46v-.47c0-.71-.36-1.06-1.24-1.06a1.27,1.27,0,0,0-1.22.55l-.49-.44a1.87,1.87,0,0,1,1.72-.72c1.3,0,1.94.56,1.94,1.61v3.3Zm0-2.24H170.2c-.73,0-1.08.3-1.08.86s.34.83,1.11.83a1.39,1.39,0,0,0,1.08-.33,1.11,1.11,0,0,0,.25-.84Zm-1-3.62h-.65l.87-1.5h.85Z"/><path class="cls-3" d="M179.88,36.77l-1.54-2.48-1,1.08v1.4h-.71v-7h.71v4.69l2.19-2.52h.88l-1.64,1.85,1.93,3Z"/><path class="cls-3" d="M185.19,36.77v-3a1.2,1.2,0,1,0-2.4,0v3h-.71V31.92h.71v.53a1.77,1.77,0,0,1,1.36-.59,1.72,1.72,0,0,1,1.25.46,1.79,1.79,0,0,1,.5,1.35v3.1Z"/><path class="cls-3" d="M187.7,30.54v-.8h.79v.8Zm0,6.23V31.92h.7v4.85Z"/><path class="cls-3" d="M193.45,36.77v-3c0-.85-.45-1.28-1.18-1.28a1.14,1.14,0,0,0-1.21,1.28v3h-.71v-7h.71v2.7a1.75,1.75,0,0,1,1.36-.59,1.64,1.64,0,0,1,1.74,1.79v3.12Z"/><path class="cls-3" d="M199.12,36.28a2,2,0,0,1-2.78,0,2.64,2.64,0,0,1-.59-1.94,2.61,2.61,0,0,1,.59-1.93,1.92,1.92,0,0,1,1.39-.55,1.9,1.9,0,0,1,1.39.55,2.61,2.61,0,0,1,.59,1.93A2.64,2.64,0,0,1,199.12,36.28Zm-.51-3.43a1.26,1.26,0,0,0-1.76,0,2.07,2.07,0,0,0-.39,1.49,2.09,2.09,0,0,0,.39,1.5,1.26,1.26,0,0,0,1.76,0,2.1,2.1,0,0,0,.39-1.5A2.07,2.07,0,0,0,198.61,32.85Z"/><path class="cls-3" d="M202.87,36.77h-.63l-1.77-4.85h.76l1.32,3.9,1.34-3.9h.76Z"/><path class="cls-3" d="M208.87,36.77v-3a1.2,1.2,0,1,0-2.39,0v3h-.71V31.92h.71v.53a1.74,1.74,0,0,1,1.36-.59,1.69,1.69,0,0,1,1.24.46,1.79,1.79,0,0,1,.5,1.35v3.1Z"/><path class="cls-3" d="M214.17,36.77V36.3a1.7,1.7,0,0,1-1.4.53,1.72,1.72,0,0,1-1.37-.45,1.41,1.41,0,0,1-.36-1c0-.85.59-1.4,1.67-1.4h1.46v-.47c0-.71-.36-1.06-1.24-1.06a1.27,1.27,0,0,0-1.22.55l-.49-.44a1.87,1.87,0,0,1,1.72-.72c1.3,0,1.94.56,1.94,1.61v3.3Zm0-2.24h-1.36c-.73,0-1.08.3-1.08.86s.34.83,1.11.83a1.39,1.39,0,0,0,1.08-.33,1.11,1.11,0,0,0,.25-.84Z"/><rect class="cls-3" x="219.63" y="30.36" width="1.3" height="6.41"/><rect class="cls-3" x="227.64" y="30.36" width="1.3" height="6.41"/><path class="cls-3" d="M221.33,36.77v0l0,0Zm4.22-6.41-4.2,6.41h1.43L227,30.36Z"/></svg>