<svg xmlns="http://www.w3.org/2000/svg" viewBox="0 0 250 51"><defs><style>.a{fill:#e5004b;}.b{fill:#838480;}</style></defs><polygon class="a" points="32.42 10.41 24.43 22.25 32.44 33.99 38.13 33.99 30.2 22.25 38.13 10.41 32.42 10.41"/><polygon class="a" points="20.26 0.46 14.28 13.3 0.05 12.6 2.99 17.49 17.25 18.24 23.19 5.33 20.26 0.46"/><polygon class="a" points="2.91 27 0 31.89 14.15 31.08 20.27 43.95 23.19 39.04 17.09 26.13 2.91 27"/><path class="a" d="M64.5,33.56,58.7,23.29l-2.92,3.48v6.79H51.37V11h4.41v9.83l8-9.83H69.1l-7.49,9,8,13.61Z"/><path class="a" d="M86,33.56,77.09,19.7V33.56H72.68V11h3.93l8.94,13.83V11H90V33.56Z"/><path class="a" d="M95.45,33.56V11h4.41V33.56Z"/><path class="a" d="M117.39,33.56V24.11h-7.64v9.45h-4.41V11h4.41v9.23h7.64V11h4.41V33.56Z"/><path class="a" d="M141,31.28a8.77,8.77,0,0,1-12.2,0c-2.29-2.28-2.22-5.11-2.22-9s-.07-6.72,2.22-9a8.74,8.74,0,0,1,12.2,0c2.28,2.28,2.25,5.1,2.25,9S143.23,29,141,31.28Zm-3.27-15.35a3.65,3.65,0,0,0-2.82-1.21A3.73,3.73,0,0,0,132,15.93c-.86.95-1.08,2-1.08,6.34s.22,5.39,1.08,6.34a3.72,3.72,0,0,0,2.85,1.21,3.65,3.65,0,0,0,2.82-1.21c.86-.95,1.12-2,1.12-6.34s-.25-5.39-1.11-6.34Z"/><path class="a" d="M155.82,33.56h-3.3L145.07,11h4.57l4.53,14.71L158.7,11h4.6Z"/><path class="a" d="M179.6,33.56,170.66,19.7V33.56h-4.41V11h3.93l8.94,13.83V11h4.41V33.56Z"/><path class="a" d="M197.65,24.3v9.26h-4.38V24.3L186.48,11h4.79l4.22,9.1,4.15-9.1h4.79Z"/><path class="a" d="M206.9,33.56V28.87h4.73v4.69Z"/><path class="a" d="M224.19,33.75a8.28,8.28,0,0,1-6.09-2.47,6.58,6.58,0,0,1-1.84-3.4,31,31,0,0,1-.38-5.61,31.12,31.12,0,0,1,.38-5.62,6.38,6.38,0,0,1,1.84-3.39,8.28,8.28,0,0,1,6.09-2.47c4.34,0,7.54,2.53,8.3,7.13H228a3.71,3.71,0,0,0-3.8-3.2,3.48,3.48,0,0,0-2.82,1.17c-.92,1-1.12,2-1.12,6.38s.2,5.39,1.12,6.37a3.48,3.48,0,0,0,2.82,1.18,3.72,3.72,0,0,0,3.8-3.21h4.47A8,8,0,0,1,224.19,33.75Z"/><path class="a" d="M235.16,33.56V30l9.64-15.09h-9.23V11H250v3.49l-9.67,15.16H250v3.93Z"/><rect class="b" x="199.73" y="41.62" width="1.43" height="7.03"/><rect class="b" x="208.52" y="41.62" width="1.43" height="7.03"/><path class="b" d="M201.59,48.65Zm4.62-7-4.59,7h1.56l4.61-7Z"/><path class="b" d="M58.67,44.65a4.52,4.52,0,0,1-.29,1.64,3.7,3.7,0,0,1-.8,1.29,3.34,3.34,0,0,1-1.24.83,4.42,4.42,0,0,1-3.2,0,3.39,3.39,0,0,1-1.23-.83,3.7,3.7,0,0,1-.8-1.29,4.52,4.52,0,0,1-.29-1.64A4.59,4.59,0,0,1,51.11,43a3.75,3.75,0,0,1,.8-1.28,3.54,3.54,0,0,1,1.23-.84,4.42,4.42,0,0,1,3.2,0,3.49,3.49,0,0,1,1.24.84,3.75,3.75,0,0,1,.8,1.28A4.59,4.59,0,0,1,58.67,44.65Zm-1.11,0a4.14,4.14,0,0,0-.2-1.31,2.81,2.81,0,0,0-.56-1,2.69,2.69,0,0,0-.89-.62,3.34,3.34,0,0,0-2.33,0,2.69,2.69,0,0,0-.89.62,2.83,2.83,0,0,0-.57,1,4.42,4.42,0,0,0,0,2.63,2.88,2.88,0,0,0,.57,1,2.55,2.55,0,0,0,.89.62,3.34,3.34,0,0,0,2.33,0A2.55,2.55,0,0,0,56.8,47a2.86,2.86,0,0,0,.56-1A4.16,4.16,0,0,0,57.56,44.65Z"/><path class="b" d="M60,50.53V43h.59a.25.25,0,0,1,.27.2l.08.67a3.06,3.06,0,0,1,.82-.71,2.2,2.2,0,0,1,1.07-.26,2.1,2.1,0,0,1,.88.18,1.87,1.87,0,0,1,.67.55,2.69,2.69,0,0,1,.43.9,4.63,4.63,0,0,1,.15,1.24,3.92,3.92,0,0,1-.17,1.16,2.83,2.83,0,0,1-.48.93,2.16,2.16,0,0,1-.76.61,2.25,2.25,0,0,1-1,.23,2,2,0,0,1-.89-.18,2,2,0,0,1-.65-.48v2.48Zm2.5-6.82a1.55,1.55,0,0,0-.84.22,2.33,2.33,0,0,0-.67.63v2.71a1.53,1.53,0,0,0,.6.52,1.66,1.66,0,0,0,.72.15,1.42,1.42,0,0,0,1.2-.56,2.56,2.56,0,0,0,.43-1.6,4.16,4.16,0,0,0-.1-.94,2,2,0,0,0-.28-.65,1.07,1.07,0,0,0-.45-.37A1.48,1.48,0,0,0,62.48,43.71Z"/><path class="b" d="M68.33,42.92a2.42,2.42,0,0,1,.94.17,2,2,0,0,1,.73.48,2.35,2.35,0,0,1,.49.79,3,3,0,0,1,.17,1.07.55.55,0,0,1,0,.31.19.19,0,0,1-.18.08H66.69a2.89,2.89,0,0,0,.14.93,1.79,1.79,0,0,0,.37.65,1.45,1.45,0,0,0,.55.4,1.88,1.88,0,0,0,.72.13,2,2,0,0,0,.64-.09,3.09,3.09,0,0,0,.47-.18l.32-.19a.4.4,0,0,1,.23-.08.2.2,0,0,1,.18.09l.28.36a1.84,1.84,0,0,1-.44.39,2.73,2.73,0,0,1-.54.27,3.29,3.29,0,0,1-.6.15,3.34,3.34,0,0,1-.62.06,2.83,2.83,0,0,1-1.07-.2,2.3,2.3,0,0,1-.85-.58,2.59,2.59,0,0,1-.56-.94,3.88,3.88,0,0,1-.2-1.29,3.3,3.3,0,0,1,.18-1.1,2.5,2.5,0,0,1,.52-.88,2.33,2.33,0,0,1,.82-.59A2.8,2.8,0,0,1,68.33,42.92Zm0,.72a1.5,1.5,0,0,0-1.13.42,2,2,0,0,0-.51,1.14h3.06a1.85,1.85,0,0,0-.1-.63,1.26,1.26,0,0,0-.28-.49,1.16,1.16,0,0,0-.44-.32A1.46,1.46,0,0,0,68.36,43.64Z"/><path class="b" d="M71.92,48.63V43h.57a.3.3,0,0,1,.22.06.41.41,0,0,1,.09.21l.06.87a2.47,2.47,0,0,1,.72-.91,1.55,1.55,0,0,1,1-.33A1.34,1.34,0,0,1,75,43a1,1,0,0,1,.35.15l-.12.73A.17.17,0,0,1,75,44a.72.72,0,0,1-.24,0,1.32,1.32,0,0,0-.45,0,1.27,1.27,0,0,0-.86.3,2.32,2.32,0,0,0-.58.87v3.58Z"/><path class="b" d="M80.32,48.63h-.44a.54.54,0,0,1-.24-.05c-.06,0-.09-.09-.11-.19l-.11-.52a4.37,4.37,0,0,1-.44.36,2,2,0,0,1-.44.27,2.66,2.66,0,0,1-.5.16,2.58,2.58,0,0,1-.58.06,2.11,2.11,0,0,1-.62-.09,1.57,1.57,0,0,1-.49-.28,1.39,1.39,0,0,1-.34-.47,1.66,1.66,0,0,1-.12-.66,1.24,1.24,0,0,1,.18-.64,1.58,1.58,0,0,1,.59-.55,4.07,4.07,0,0,1,1.07-.4,7.41,7.41,0,0,1,1.61-.15V45a1.53,1.53,0,0,0-.28-1,1,1,0,0,0-.83-.33,1.72,1.72,0,0,0-.6.09,2.48,2.48,0,0,0-.43.2l-.31.21a.45.45,0,0,1-.26.09.31.31,0,0,1-.17,0,.49.49,0,0,1-.12-.13l-.18-.32a3.19,3.19,0,0,1,1-.67,3.09,3.09,0,0,1,1.2-.22,2.16,2.16,0,0,1,.83.15,1.7,1.7,0,0,1,1,1.11,2.93,2.93,0,0,1,.13.86ZM77.75,48a1.82,1.82,0,0,0,.48-.05,1.56,1.56,0,0,0,.41-.15,2,2,0,0,0,.36-.23,3.4,3.4,0,0,0,.34-.32V46.11a7.62,7.62,0,0,0-1.16.08,3.56,3.56,0,0,0-.77.23,1,1,0,0,0-.44.33.73.73,0,0,0-.13.43.92.92,0,0,0,.07.38.77.77,0,0,0,.19.27,1.13,1.13,0,0,0,.29.15A1.37,1.37,0,0,0,77.75,48Z"/><path class="b" d="M83.52,48.72a1.39,1.39,0,0,1-1-.37,1.54,1.54,0,0,1-.35-1.08V43.83h-.68a.19.19,0,0,1-.21-.21v-.4l.92-.11.23-1.74a.19.19,0,0,1,.07-.14.25.25,0,0,1,.15,0h.5v1.94h1.61v.71H83.12v3.38a.68.68,0,0,0,.18.52.57.57,0,0,0,.44.18,1.1,1.1,0,0,0,.27,0,1.24,1.24,0,0,0,.2-.1l.14-.09a.16.16,0,0,1,.1,0,.17.17,0,0,1,.14.09l.29.48a1.83,1.83,0,0,1-.62.37A2.11,2.11,0,0,1,83.52,48.72Z"/><path class="b" d="M88.18,42.92a2.33,2.33,0,0,1,.93.17,2.06,2.06,0,0,1,.74.48,2.35,2.35,0,0,1,.49.79,3.25,3.25,0,0,1,.17,1.07.66.66,0,0,1-.05.31.21.21,0,0,1-.19.08H86.53a3.18,3.18,0,0,0,.15.93,1.77,1.77,0,0,0,.36.65,1.48,1.48,0,0,0,.56.4,1.81,1.81,0,0,0,.72.13,2,2,0,0,0,.64-.09,3,3,0,0,0,.46-.18l.33-.19a.37.37,0,0,1,.22-.08.22.22,0,0,1,.19.09l.28.36a1.84,1.84,0,0,1-.44.39,2.56,2.56,0,0,1-.55.27,2.93,2.93,0,0,1-.6.15,3.23,3.23,0,0,1-.61.06,2.92,2.92,0,0,1-1.08-.2,2.38,2.38,0,0,1-.85-.58,2.73,2.73,0,0,1-.56-.94,3.88,3.88,0,0,1-.2-1.29,3.07,3.07,0,0,1,.19-1.1,2.64,2.64,0,0,1,.51-.88,2.46,2.46,0,0,1,.83-.59A2.77,2.77,0,0,1,88.18,42.92Zm0,.72a1.48,1.48,0,0,0-1.12.42,1.93,1.93,0,0,0-.52,1.14h3.06a2.13,2.13,0,0,0-.09-.63,1.39,1.39,0,0,0-.28-.49,1.12,1.12,0,0,0-.45-.32A1.4,1.4,0,0,0,88.2,43.64Z"/><path class="b" d="M95.73,48.63a.26.26,0,0,1-.27-.21l-.09-.68a2.86,2.86,0,0,1-.82.7,2.18,2.18,0,0,1-1.94.08,1.77,1.77,0,0,1-.67-.55,2.51,2.51,0,0,1-.43-.9,4.55,4.55,0,0,1-.15-1.23,3.92,3.92,0,0,1,.17-1.16,2.73,2.73,0,0,1,.48-.93,2.28,2.28,0,0,1,.76-.62,2.25,2.25,0,0,1,1-.22,2,2,0,0,1,.88.17,2.11,2.11,0,0,1,.66.49V40.45h1v8.18Zm-1.92-.72a1.56,1.56,0,0,0,.85-.23,2.41,2.41,0,0,0,.67-.62V44.34a1.53,1.53,0,0,0-.6-.52,1.81,1.81,0,0,0-.72-.14,1.41,1.41,0,0,0-1.21.56,2.61,2.61,0,0,0-.42,1.6,3.71,3.71,0,0,0,.1.94,1.79,1.79,0,0,0,.27.64,1.14,1.14,0,0,0,.45.37A1.48,1.48,0,0,0,93.81,47.91Z"/><path class="b" d="M100.15,48.63V40.45h1v3.37a3,3,0,0,1,.81-.66,2.15,2.15,0,0,1,1-.24,2.07,2.07,0,0,1,.88.18,1.71,1.71,0,0,1,.68.55,2.68,2.68,0,0,1,.42.9,4.5,4.5,0,0,1,.15,1.23,3.92,3.92,0,0,1-.16,1.16,3.27,3.27,0,0,1-.48.93,2.29,2.29,0,0,1-.77.61,2.25,2.25,0,0,1-1,.23,1.87,1.87,0,0,1-.92-.21,2.21,2.21,0,0,1-.67-.59l0,.51a.23.23,0,0,1-.25.21Zm2.51-4.92a1.61,1.61,0,0,0-.85.22,2.46,2.46,0,0,0-.67.63v2.71a1.53,1.53,0,0,0,.6.52,1.66,1.66,0,0,0,.72.15,1.44,1.44,0,0,0,1.21-.56,2.63,2.63,0,0,0,.42-1.6,3.66,3.66,0,0,0-.1-.94,1.62,1.62,0,0,0-.28-.65,1.07,1.07,0,0,0-.45-.37A1.43,1.43,0,0,0,102.66,43.71Z"/><path class="b" d="M107.83,50.29a.83.83,0,0,1-.13.18.35.35,0,0,1-.23.06h-.73l1-2.23L105.45,43h.85a.3.3,0,0,1,.2.06.49.49,0,0,1,.11.14l1.5,3.54.09.25.06.25c0-.09,0-.17.08-.25a1.25,1.25,0,0,1,.09-.25l1.46-3.54a.33.33,0,0,1,.11-.15.34.34,0,0,1,.17-.05H111Z"/><path class="b" d="M118.21,46l.11.3.12-.3a1.83,1.83,0,0,1,.14-.28l2.69-4.89a.33.33,0,0,1,.15-.16.65.65,0,0,1,.22,0h.79v8h-.94V42.78a2.26,2.26,0,0,1,0-.25,2.53,2.53,0,0,1,0-.27l-2.72,5a.43.43,0,0,1-.39.24h-.16a.42.42,0,0,1-.38-.24l-2.79-5a2.64,2.64,0,0,1,0,.28,2.26,2.26,0,0,1,0,.25v5.85h-.94v-8H115a.65.65,0,0,1,.22,0,.26.26,0,0,1,.15.16l2.75,4.89C118.12,45.84,118.17,45.94,118.21,46Z"/><path class="b" d="M126.49,42.92a3,3,0,0,1,1.11.2,2.32,2.32,0,0,1,.85.59,2.48,2.48,0,0,1,.53.91A3.85,3.85,0,0,1,129,47a2.48,2.48,0,0,1-.53.91,2.19,2.19,0,0,1-.85.58,3,3,0,0,1-2.22,0,2.19,2.19,0,0,1-.85-.58A2.65,2.65,0,0,1,124,47a3.85,3.85,0,0,1,0-2.39,2.65,2.65,0,0,1,.54-.91,2.32,2.32,0,0,1,.85-.59A3,3,0,0,1,126.49,42.92Zm0,5a1.43,1.43,0,0,0,1.24-.55,3.17,3.17,0,0,0,0-3.12,1.41,1.41,0,0,0-1.24-.57,1.67,1.67,0,0,0-.73.15,1.25,1.25,0,0,0-.52.42,1.84,1.84,0,0,0-.31.66,3.59,3.59,0,0,0-.1.9,3.46,3.46,0,0,0,.1.89,1.81,1.81,0,0,0,.31.67,1.4,1.4,0,0,0,.52.41A1.67,1.67,0,0,0,126.49,47.93Z"/><path class="b" d="M130.39,48.63V43H131a.35.35,0,0,1,.23.06.42.42,0,0,1,.08.21l.07.87a2.56,2.56,0,0,1,.71-.91,1.56,1.56,0,0,1,1-.33,1.42,1.42,0,0,1,.42.05,1.19,1.19,0,0,1,.35.15l-.13.73c0,.1-.08.14-.17.14a.72.72,0,0,1-.24,0,1.39,1.39,0,0,0-.45,0,1.25,1.25,0,0,0-.86.3,2.11,2.11,0,0,0-.58.87v3.58Z"/><path class="b" d="M138.78,48.63h-.44a.49.49,0,0,1-.23-.05.25.25,0,0,1-.12-.19l-.11-.52a4.32,4.32,0,0,1-.43.36,2.07,2.07,0,0,1-.45.27,2.56,2.56,0,0,1-.49.16,2.74,2.74,0,0,1-.59.06,2,2,0,0,1-.61-.09,1.62,1.62,0,0,1-.5-.28,1.39,1.39,0,0,1-.34-.47,1.66,1.66,0,0,1-.12-.66,1.24,1.24,0,0,1,.18-.64,1.58,1.58,0,0,1,.59-.55,4.22,4.22,0,0,1,1.07-.4,7.44,7.44,0,0,1,1.62-.15V45a1.59,1.59,0,0,0-.28-1,1,1,0,0,0-.83-.33,1.78,1.78,0,0,0-.61.09,2.48,2.48,0,0,0-.43.2l-.31.21a.45.45,0,0,1-.26.09.34.34,0,0,1-.17,0,.49.49,0,0,1-.12-.13l-.18-.32a3.23,3.23,0,0,1,1-.67,3,3,0,0,1,1.19-.22,2.24,2.24,0,0,1,.84.15,1.82,1.82,0,0,1,.61.43,1.74,1.74,0,0,1,.38.68,2.63,2.63,0,0,1,.13.86ZM136.21,48a1.77,1.77,0,0,0,.48-.05,1.44,1.44,0,0,0,.41-.15,2.06,2.06,0,0,0,.37-.23c.11-.1.23-.2.34-.32V46.11a7.53,7.53,0,0,0-1.16.08,3.49,3.49,0,0,0-.78.23,1.11,1.11,0,0,0-.44.33.73.73,0,0,0-.13.43.92.92,0,0,0,.07.38.77.77,0,0,0,.19.27,1.32,1.32,0,0,0,.29.15A1.37,1.37,0,0,0,136.21,48Z"/><path class="b" d="M139.39,43h.81a.32.32,0,0,1,.3.2l1.43,3.62a3,3,0,0,1,.12.4l.09.39.09-.39a3.1,3.1,0,0,1,.13-.4l1.44-3.62a.33.33,0,0,1,.11-.15.36.36,0,0,1,.19-.05h.77l-2.3,5.62h-.89Z"/><path class="b" d="M147.1,41.24a.76.76,0,0,1,0,.27.87.87,0,0,1-.38.38.87.87,0,0,1-.28,0,.86.86,0,0,1-.27,0,.82.82,0,0,1-.22-.16.86.86,0,0,1-.15-.22.64.64,0,0,1,0-.54.76.76,0,0,1,.15-.23.62.62,0,0,1,.22-.15.66.66,0,0,1,.27-.06.67.67,0,0,1,.28.06.54.54,0,0,1,.22.15.63.63,0,0,1,.16.23A.76.76,0,0,1,147.1,41.24ZM146.88,43v5.62h-1V43Z"/><path class="b" d="M152.75,48.63h-.43a.54.54,0,0,1-.24-.05.22.22,0,0,1-.11-.19l-.12-.52a3.42,3.42,0,0,1-.43.36,2.27,2.27,0,0,1-.44.27,2.66,2.66,0,0,1-.5.16,2.58,2.58,0,0,1-.58.06,2.06,2.06,0,0,1-.62-.09,1.57,1.57,0,0,1-.49-.28,1.27,1.27,0,0,1-.34-.47,1.66,1.66,0,0,1-.12-.66,1.24,1.24,0,0,1,.18-.64,1.58,1.58,0,0,1,.59-.55,4.07,4.07,0,0,1,1.07-.4,7.41,7.41,0,0,1,1.61-.15V45a1.53,1.53,0,0,0-.28-1,1,1,0,0,0-.83-.33,1.72,1.72,0,0,0-.6.09,2.48,2.48,0,0,0-.43.2l-.31.21a.48.48,0,0,1-.26.09.35.35,0,0,1-.18,0,.49.49,0,0,1-.12-.13l-.17-.32a3.19,3.19,0,0,1,1-.67,3.07,3.07,0,0,1,1.19-.22,2.17,2.17,0,0,1,.84.15,1.7,1.7,0,0,1,1,1.11,2.93,2.93,0,0,1,.12.86ZM150.19,48a1.86,1.86,0,0,0,.48-.05,1.56,1.56,0,0,0,.41-.15,2,2,0,0,0,.36-.23,3.4,3.4,0,0,0,.34-.32V46.11a7.62,7.62,0,0,0-1.16.08,3.39,3.39,0,0,0-.77.23,1,1,0,0,0-.44.33.74.74,0,0,0-.14.43.92.92,0,0,0,.08.38.66.66,0,0,0,.19.27,1.13,1.13,0,0,0,.29.15A1.37,1.37,0,0,0,150.19,48Z"/><path class="b" d="M154.25,48.63V43h.59a.25.25,0,0,1,.27.2l.07.61a3.13,3.13,0,0,1,.82-.65,2.09,2.09,0,0,1,1.05-.25,2,2,0,0,1,.81.15,1.61,1.61,0,0,1,.59.43,1.84,1.84,0,0,1,.36.68,3,3,0,0,1,.12.87v3.58h-1V45.05a1.46,1.46,0,0,0-.29-1,1.07,1.07,0,0,0-.89-.35,1.7,1.7,0,0,0-.82.21,2.66,2.66,0,0,0-.7.57v4.14Z"/><path class="b" d="M163.8,47.72h3.44v.91h-4.52v-8h1.08Z"/><path class="b" d="M169.59,41.24a.6.6,0,0,1-.06.27.66.66,0,0,1-.15.22.73.73,0,0,1-.23.16.76.76,0,0,1-.27,0,.86.86,0,0,1-.27,0,.82.82,0,0,1-.22-.16.66.66,0,0,1-.15-.22.64.64,0,0,1,0-.54.69.69,0,0,1,.37-.38.66.66,0,0,1,.27-.06.6.6,0,0,1,.27.06.57.57,0,0,1,.23.15.61.61,0,0,1,.15.23A.6.6,0,0,1,169.59,41.24ZM169.37,43v5.62h-1V43Z"/><path class="b" d="M171.15,48.63V40.45h1v3.37a3,3,0,0,1,.8-.66,2.19,2.19,0,0,1,1-.24,2.1,2.1,0,0,1,.88.18,1.68,1.68,0,0,1,.67.55,2.51,2.51,0,0,1,.43.9,4.5,4.5,0,0,1,.15,1.23,3.92,3.92,0,0,1-.17,1.16,2.83,2.83,0,0,1-.48.93,2.25,2.25,0,0,1-.76.61,2.31,2.31,0,0,1-1,.23,1.91,1.91,0,0,1-.93-.21,2.3,2.3,0,0,1-.66-.59l-.05.51a.24.24,0,0,1-.26.21Zm2.51-4.92a1.56,1.56,0,0,0-.85.22,2.33,2.33,0,0,0-.67.63v2.71a1.5,1.5,0,0,0,.59.52,1.73,1.73,0,0,0,.73.15,1.45,1.45,0,0,0,1.21-.56,2.63,2.63,0,0,0,.42-1.6,4.16,4.16,0,0,0-.1-.94,2,2,0,0,0-.28-.65,1.07,1.07,0,0,0-.45-.37A1.46,1.46,0,0,0,173.66,43.71Z"/><path class="b" d="M177.32,48.63V43h.56a.35.35,0,0,1,.23.06.42.42,0,0,1,.08.21l.06.87a2.69,2.69,0,0,1,.72-.91,1.55,1.55,0,0,1,1-.33,1.45,1.45,0,0,1,.43.05,1.19,1.19,0,0,1,.35.15l-.13.73c0,.1-.08.14-.17.14a.64.64,0,0,1-.24,0,1.39,1.39,0,0,0-.45,0,1.3,1.3,0,0,0-.87.3,2.32,2.32,0,0,0-.58.87v3.58Z"/><path class="b" d="M185.71,48.63h-.44a.49.49,0,0,1-.23-.05.25.25,0,0,1-.12-.19l-.11-.52a4.32,4.32,0,0,1-.43.36,2.07,2.07,0,0,1-.45.27,2.56,2.56,0,0,1-.49.16,2.68,2.68,0,0,1-.59.06,2,2,0,0,1-.61-.09,1.62,1.62,0,0,1-.5-.28,1.25,1.25,0,0,1-.33-.47,1.5,1.5,0,0,1-.13-.66,1.24,1.24,0,0,1,.18-.64,1.58,1.58,0,0,1,.59-.55,4.22,4.22,0,0,1,1.07-.4,7.44,7.44,0,0,1,1.62-.15V45a1.59,1.59,0,0,0-.28-1,1,1,0,0,0-.83-.33,1.78,1.78,0,0,0-.61.09,2.89,2.89,0,0,0-.43.2l-.31.21a.43.43,0,0,1-.26.09.34.34,0,0,1-.17,0,.49.49,0,0,1-.12-.13l-.18-.32a3.23,3.23,0,0,1,1-.67,3,3,0,0,1,1.19-.22,2.24,2.24,0,0,1,.84.15,1.82,1.82,0,0,1,.61.43,1.74,1.74,0,0,1,.38.68,2.63,2.63,0,0,1,.13.86ZM183.14,48a1.77,1.77,0,0,0,.48-.05,1.44,1.44,0,0,0,.41-.15,2.06,2.06,0,0,0,.37-.23c.11-.1.23-.2.34-.32V46.11a7.53,7.53,0,0,0-1.16.08,3.49,3.49,0,0,0-.78.23,1,1,0,0,0-.43.33.67.67,0,0,0-.14.43.92.92,0,0,0,.07.38.68.68,0,0,0,.2.27,1.06,1.06,0,0,0,.28.15A1.47,1.47,0,0,0,183.14,48Z"/><path class="b" d="M187.21,48.63V43h.56a.33.33,0,0,1,.23.06.42.42,0,0,1,.08.21l.07.87a2.56,2.56,0,0,1,.71-.91,1.56,1.56,0,0,1,1-.33,1.42,1.42,0,0,1,.42.05,1.19,1.19,0,0,1,.35.15l-.13.73c0,.1-.08.14-.17.14a.72.72,0,0,1-.24,0,1.39,1.39,0,0,0-.45,0,1.25,1.25,0,0,0-.86.3,2.11,2.11,0,0,0-.58.87v3.58Z"/><path class="b" d="M193.33,50.29a.59.59,0,0,1-.13.18.35.35,0,0,1-.23.06h-.73l1-2.23L191,43h.85a.3.3,0,0,1,.2.06.36.36,0,0,1,.11.14l1.5,3.54a2.5,2.5,0,0,1,.09.25l.06.25c0-.09.05-.17.08-.25a2.5,2.5,0,0,1,.09-.25l1.46-3.54a.33.33,0,0,1,.11-.15.37.37,0,0,1,.18-.05h.78Z"/></svg>