<svg id="Vrstva_1" data-name="Vrstva 1" xmlns="http://www.w3.org/2000/svg" viewBox="0 0 250 51"><defs><style>.cls-1{fill:#e10e44;}.cls-2{fill:#838480;}</style></defs><polygon class="cls-1" points="32.42 10.41 24.43 22.25 32.44 33.99 38.13 33.99 30.2 22.25 38.13 10.41 32.42 10.41"/><polygon class="cls-1" points="20.26 0.46 14.28 13.3 0.05 12.6 2.99 17.49 17.25 18.24 23.19 5.33 20.26 0.46"/><polygon class="cls-1" points="2.91 27 0 31.89 14.15 31.08 20.27 43.95 23.19 39.04 17.09 26.13 2.91 27"/><path class="cls-1" d="M64.5,33.56,58.7,23.29l-2.92,3.48v6.79H51.37V11h4.41v9.83l8-9.83H69.1l-7.49,9,8,13.61Z"/><path class="cls-1" d="M86,33.56,77.09,19.7V33.56H72.68V11h3.93l8.94,13.83V11H90V33.56Z"/><path class="cls-1" d="M95.45,33.56V11h4.41V33.56Z"/><path class="cls-1" d="M117.39,33.56V24.11h-7.64v9.45h-4.41V11h4.41v9.23h7.64V11h4.41V33.56Z"/><path class="cls-1" d="M141,31.28a8.77,8.77,0,0,1-12.2,0c-2.29-2.28-2.22-5.11-2.22-9s-.07-6.72,2.22-9a8.74,8.74,0,0,1,12.2,0c2.28,2.28,2.25,5.1,2.25,9S143.23,29,141,31.28Zm-3.27-15.35a3.65,3.65,0,0,0-2.82-1.21A3.73,3.73,0,0,0,132,15.93c-.86.95-1.08,2-1.08,6.34s.22,5.39,1.08,6.34a3.73,3.73,0,0,0,2.85,1.21,3.65,3.65,0,0,0,2.82-1.21c.86-.95,1.12-2,1.12-6.34S138.54,16.88,137.68,15.93Z"/><path class="cls-1" d="M155.82,33.56h-3.3L145.07,11h4.57l4.53,14.71L158.7,11h4.6Z"/><path class="cls-1" d="M179.6,33.56,170.66,19.7V33.56h-4.41V11h3.93l8.94,13.83V11h4.41V33.56Z"/><path class="cls-1" d="M197.65,24.3v9.26h-4.38V24.3L186.48,11h4.79l4.22,9.1,4.15-9.1h4.79Z"/><path class="cls-1" d="M206.9,33.56V28.87h4.73v4.69Z"/><path class="cls-1" d="M224.19,33.75a8.31,8.31,0,0,1-6.09-2.47,6.57,6.57,0,0,1-1.84-3.4,31.16,31.16,0,0,1-.38-5.61,31.21,31.21,0,0,1,.38-5.62,6.39,6.39,0,0,1,1.84-3.39,8.27,8.27,0,0,1,6.09-2.47c4.34,0,7.54,2.53,8.3,7.13H228a3.72,3.72,0,0,0-3.8-3.2,3.47,3.47,0,0,0-2.82,1.17c-.92,1-1.12,2-1.12,6.38s.2,5.39,1.12,6.37a3.48,3.48,0,0,0,2.82,1.18,3.72,3.72,0,0,0,3.8-3.21h4.47A8,8,0,0,1,224.19,33.75Z"/><path class="cls-1" d="M235.16,33.56V30l9.64-15.09h-9.23V11H250v3.49l-9.67,15.16H250v3.93Z"/><path class="cls-2" d="M52.56,45.68v2.9h-1V40.84H53.8a4.05,4.05,0,0,1,1.28.17,2.27,2.27,0,0,1,.9.48,2,2,0,0,1,.54.76,2.78,2.78,0,0,1,.17,1,2.46,2.46,0,0,1-.19,1A2,2,0,0,1,56,45a2.76,2.76,0,0,1-.91.51,3.9,3.9,0,0,1-1.24.18H52.56Zm0-.83H53.8a2.39,2.39,0,0,0,.79-.12,1.72,1.72,0,0,0,.58-.33,1.41,1.41,0,0,0,.35-.51,1.71,1.71,0,0,0,.12-.65,1.51,1.51,0,0,0-.46-1.16,2,2,0,0,0-1.38-.41H52.56v3.18Z"/><path class="cls-2" d="M58,48.58V43.11h.55a.4.4,0,0,1,.22,0,.54.54,0,0,1,.08.21l.06.85a2.46,2.46,0,0,1,.7-.89,1.52,1.52,0,0,1,1-.32,1.86,1.86,0,0,1,.42.05,1.47,1.47,0,0,1,.34.15l-.13.71a.16.16,0,0,1-.17.14,1.07,1.07,0,0,1-.23-.05,1.29,1.29,0,0,0-.44,0,1.23,1.23,0,0,0-.84.29,2.21,2.21,0,0,0-.56.85v3.48Z"/><path class="cls-2" d="M64.69,43a2.67,2.67,0,0,1,1.08.2,2.26,2.26,0,0,1,.82.56,2.55,2.55,0,0,1,.52.89,3.59,3.59,0,0,1,.18,1.17A3.49,3.49,0,0,1,67.11,47a2.38,2.38,0,0,1-.52.89,2.26,2.26,0,0,1-.82.56,2.67,2.67,0,0,1-1.08.2,2.75,2.75,0,0,1-1.09-.2,2.35,2.35,0,0,1-.82-.56,2.38,2.38,0,0,1-.52-.89,3.48,3.48,0,0,1-.19-1.16,3.59,3.59,0,0,1,.19-1.17,2.55,2.55,0,0,1,.52-.89,2.35,2.35,0,0,1,.82-.56A2.72,2.72,0,0,1,64.69,43Zm0,4.88a1.41,1.41,0,0,0,1.21-.54,3.09,3.09,0,0,0,0-3,1.42,1.42,0,0,0-1.21-.55,1.74,1.74,0,0,0-.72.14,1.31,1.31,0,0,0-.5.4,1.84,1.84,0,0,0-.31.66,3.72,3.72,0,0,0-.1.87,3.85,3.85,0,0,0,.1.87,1.74,1.74,0,0,0,.31.64,1.22,1.22,0,0,0,.5.4A1.74,1.74,0,0,0,64.69,47.9Z"/><path class="cls-2" d="M67.78,43.11h.78a.36.36,0,0,1,.19,0,.36.36,0,0,1,.11.14l1.39,3.53a2.52,2.52,0,0,1,.12.39c0,.13,0,.26.08.38,0-.12.06-.25.09-.38a2.91,2.91,0,0,1,.12-.39l1.41-3.53a.28.28,0,0,1,.1-.14.27.27,0,0,1,.18,0h.75l-2.23,5.47H70Z"/><path class="cls-2" d="M76.2,43a2.75,2.75,0,0,1,1.09.2,2.35,2.35,0,0,1,.82.56,2.55,2.55,0,0,1,.52.89,3.59,3.59,0,0,1,.18,1.17A3.49,3.49,0,0,1,78.63,47a2.38,2.38,0,0,1-.52.89,2.35,2.35,0,0,1-.82.56,2.72,2.72,0,0,1-1.09.2,2.67,2.67,0,0,1-1.08-.2,2.26,2.26,0,0,1-.82-.56,2.54,2.54,0,0,1-.53-.89,3.49,3.49,0,0,1-.18-1.16,3.59,3.59,0,0,1,.18-1.17,2.73,2.73,0,0,1,.53-.89,2.26,2.26,0,0,1,.82-.56A2.67,2.67,0,0,1,76.2,43Zm0,4.88a1.4,1.4,0,0,0,1.21-.54,3.09,3.09,0,0,0,0-3,1.41,1.41,0,0,0-1.21-.55,1.73,1.73,0,0,0-.71.14,1.42,1.42,0,0,0-.51.4,2,2,0,0,0-.3.66,3.25,3.25,0,0,0-.1.87,3.35,3.35,0,0,0,.1.87,1.9,1.9,0,0,0,.3.64,1.32,1.32,0,0,0,.51.4A1.73,1.73,0,0,0,76.2,47.9Z"/><path class="cls-2" d="M83.94,43.52a.48.48,0,0,1,0,.2,1.4,1.4,0,0,1-.09.17l-3,3.94h3v.75H79.71v-.4a.34.34,0,0,1,0-.16.5.5,0,0,1,.1-.19l3-4H79.88v-.76h4.06v.41Z"/><path class="cls-2" d="M86.07,43.11v3.48a1.48,1.48,0,0,0,.29,1,1.08,1.08,0,0,0,.86.34,1.69,1.69,0,0,0,.8-.2,2.4,2.4,0,0,0,.69-.56v-4h1v5.47H89.1a.24.24,0,0,1-.26-.2l-.08-.59a3,3,0,0,1-.8.63,2.07,2.07,0,0,1-1,.24,2,2,0,0,1-.79-.15,1.61,1.61,0,0,1-.58-.41,2,2,0,0,1-.35-.66,3.24,3.24,0,0,1-.11-.85V43.11Z"/><path class="cls-2" d="M92.45,43.11V49a2.06,2.06,0,0,1-.09.62,1.24,1.24,0,0,1-.75.82,1.88,1.88,0,0,1-.71.12l-.32,0-.29-.08,0-.52c0-.05,0-.08,0-.09s.06,0,.12,0h.21a.75.75,0,0,0,.59-.2.91.91,0,0,0,.18-.63V43.11Zm.21-1.72a.58.58,0,0,1,0,.26,1.07,1.07,0,0,1-.15.22.64.64,0,0,1-.22.14.63.63,0,0,1-.27.06.58.58,0,0,1-.26-.06.6.6,0,0,1-.21-.14.62.62,0,0,1-.15-.22.58.58,0,0,1-.06-.26.63.63,0,0,1,.06-.27.54.54,0,0,1,.15-.22.51.51,0,0,1,.21-.15.58.58,0,0,1,.26-.06.63.63,0,0,1,.27.06.54.54,0,0,1,.22.15.71.71,0,0,1,.15.22A.62.62,0,0,1,92.66,41.39Z"/><path class="cls-2" d="M96.42,43a2.4,2.4,0,0,1,.9.16,2,2,0,0,1,.72.48,2.08,2.08,0,0,1,.47.76,2.84,2.84,0,0,1,.17,1,.68.68,0,0,1,0,.3.2.2,0,0,1-.19.08H94.81a2.93,2.93,0,0,0,.14.9,2,2,0,0,0,.35.64,1.42,1.42,0,0,0,.55.39,2.25,2.25,0,0,0,1.32,0,3.49,3.49,0,0,0,.45-.18l.32-.18a.4.4,0,0,1,.22-.09.2.2,0,0,1,.18.09l.27.36a2.14,2.14,0,0,1-.42.37,2.07,2.07,0,0,1-.54.26,3.83,3.83,0,0,1-.58.16,4,4,0,0,1-.6,0,2.76,2.76,0,0,1-1-.19,2.44,2.44,0,0,1-.82-.56,2.48,2.48,0,0,1-.55-.92,4,4,0,0,1-.19-1.25A3.33,3.33,0,0,1,94,44.66a2.55,2.55,0,0,1,.51-.86,2.32,2.32,0,0,1,.8-.58A2.85,2.85,0,0,1,96.42,43Zm0,.71a1.49,1.49,0,0,0-1.1.4,1.87,1.87,0,0,0-.49,1.11h3a2,2,0,0,0-.09-.61,1.31,1.31,0,0,0-.7-.8A1.55,1.55,0,0,0,96.44,43.73Z"/><path class="cls-2" d="M106.35,46.05c0,.09.07.19.11.29a2.49,2.49,0,0,1,.11-.29l.14-.28L109.33,41c0-.08.09-.13.15-.15a.58.58,0,0,1,.21,0h.78v7.74h-.93V42.89a2.18,2.18,0,0,1,0-.25,2.28,2.28,0,0,1,0-.26l-2.65,4.84a.43.43,0,0,1-.38.24h-.15a.42.42,0,0,1-.38-.24l-2.71-4.86c0,.1,0,.19,0,.28a2.18,2.18,0,0,1,0,.25v5.68h-.92V40.83h.78a.58.58,0,0,1,.21,0,.35.35,0,0,1,.15.15l2.67,4.76Z"/><path class="cls-2" d="M114.54,43a2.67,2.67,0,0,1,1.08.2,2.3,2.3,0,0,1,.83.56,2.69,2.69,0,0,1,.51.89,3.34,3.34,0,0,1,.19,1.17A3.25,3.25,0,0,1,117,47a2.5,2.5,0,0,1-.51.89,2.3,2.3,0,0,1-.83.56,3,3,0,0,1-2.16,0,2.39,2.39,0,0,1-.83-.56,2.52,2.52,0,0,1-.52-.89,3.49,3.49,0,0,1-.18-1.16,3.59,3.59,0,0,1,.18-1.17,2.71,2.71,0,0,1,.52-.89,2.39,2.39,0,0,1,.83-.56A2.67,2.67,0,0,1,114.54,43Zm0,4.88a1.41,1.41,0,0,0,1.21-.54,2.59,2.59,0,0,0,.4-1.52,2.5,2.5,0,0,0-.4-1.52,1.42,1.42,0,0,0-1.21-.55,1.7,1.7,0,0,0-.71.14,1.34,1.34,0,0,0-.51.4,1.67,1.67,0,0,0-.3.66,3.25,3.25,0,0,0-.1.87,3.35,3.35,0,0,0,.1.87,1.58,1.58,0,0,0,.3.64,1.25,1.25,0,0,0,.51.4A1.55,1.55,0,0,0,114.54,47.9Z"/><path class="cls-2" d="M118.46,48.58V43.11H119a.4.4,0,0,1,.22,0,.54.54,0,0,1,.08.21l.06.85a2.46,2.46,0,0,1,.7-.89,1.54,1.54,0,0,1,1-.32,1.86,1.86,0,0,1,.42.05,1.47,1.47,0,0,1,.34.15l-.13.71a.16.16,0,0,1-.17.14l-.23-.05a1.29,1.29,0,0,0-.44,0,1.23,1.23,0,0,0-.84.29,2.21,2.21,0,0,0-.56.85v3.48Z"/><path class="cls-2" d="M126.76,48.58h-.43a.52.52,0,0,1-.23,0,.25.25,0,0,1-.11-.18l-.11-.51a4.32,4.32,0,0,1-.42.35,2.73,2.73,0,0,1-.43.26,2.56,2.56,0,0,1-.49.16,3.24,3.24,0,0,1-.56,0,1.89,1.89,0,0,1-.6-.09,1.33,1.33,0,0,1-.48-.27,1.17,1.17,0,0,1-.33-.45,1.6,1.6,0,0,1-.12-.65,1.29,1.29,0,0,1,.17-.62,1.53,1.53,0,0,1,.58-.54,3.86,3.86,0,0,1,1-.38,7,7,0,0,1,1.57-.15v-.43a1.5,1.5,0,0,0-.27-1,1,1,0,0,0-.81-.33,1.65,1.65,0,0,0-.59.1,2,2,0,0,0-.42.19l-.3.2a.45.45,0,0,1-.25.09.25.25,0,0,1-.17,0,.46.46,0,0,1-.12-.12l-.17-.31a3.14,3.14,0,0,1,1-.66,3,3,0,0,1,1.16-.21,2.05,2.05,0,0,1,.81.15,1.63,1.63,0,0,1,.6.42,1.81,1.81,0,0,1,.37.65,2.86,2.86,0,0,1,.12.85v3.5Zm-2.5-.59a2.09,2.09,0,0,0,.46-.05,2.37,2.37,0,0,0,.4-.15,1.69,1.69,0,0,0,.36-.23,3.13,3.13,0,0,0,.33-.31V46.12a6.08,6.08,0,0,0-1.13.09,3,3,0,0,0-.76.22,1,1,0,0,0-.42.32.67.67,0,0,0-.13.41.89.89,0,0,0,.07.38.68.68,0,0,0,.18.26.87.87,0,0,0,.29.14A1.29,1.29,0,0,0,124.26,48Z"/><path class="cls-2" d="M127.48,43.11h.79a.35.35,0,0,1,.18,0,.36.36,0,0,1,.11.14L130,46.83a2.52,2.52,0,0,1,.12.39c0,.13.05.26.08.38,0-.12.06-.25.09-.38a2.91,2.91,0,0,1,.12-.39l1.41-3.53a.28.28,0,0,1,.1-.14.27.27,0,0,1,.18,0h.75l-2.23,5.47h-.87Z"/><path class="cls-2" d="M137,44a.21.21,0,0,1-.2.12.38.38,0,0,1-.18-.06l-.25-.14a3.58,3.58,0,0,0-.36-.13,1.7,1.7,0,0,0-.48-.06,1.51,1.51,0,0,0-.44.06,1,1,0,0,0-.33.17.82.82,0,0,0-.21.25.64.64,0,0,0-.07.31.51.51,0,0,0,.12.35,1,1,0,0,0,.32.25,2.34,2.34,0,0,0,.45.18l.52.16.53.2a2,2,0,0,1,.45.27,1.26,1.26,0,0,1,.32.4,1.22,1.22,0,0,1,.12.56,1.78,1.78,0,0,1-.13.7,1.6,1.6,0,0,1-.4.56,2,2,0,0,1-.65.37,2.68,2.68,0,0,1-.89.14,2.87,2.87,0,0,1-1-.19,2.34,2.34,0,0,1-.78-.48l.22-.36a.55.55,0,0,1,.1-.11.34.34,0,0,1,.16,0,.4.4,0,0,1,.21.08l.26.17a1.86,1.86,0,0,0,.37.16,1.49,1.49,0,0,0,.55.08,1.45,1.45,0,0,0,.49-.07,1.07,1.07,0,0,0,.35-.2.83.83,0,0,0,.21-.29.8.8,0,0,0,.07-.34.6.6,0,0,0-.13-.38.92.92,0,0,0-.32-.25,2.34,2.34,0,0,0-.45-.19l-.53-.16a5.55,5.55,0,0,1-.52-.2,1.71,1.71,0,0,1-.45-.28,1.17,1.17,0,0,1-.32-.41,1.26,1.26,0,0,1-.13-.6,1.38,1.38,0,0,1,.13-.6,1.55,1.55,0,0,1,.38-.51,1.81,1.81,0,0,1,.61-.35,2.31,2.31,0,0,1,.82-.13,2.66,2.66,0,0,1,1,.17,2.23,2.23,0,0,1,.74.47Z"/><path class="cls-2" d="M139.65,40.62V45.3h.25l.17,0a.43.43,0,0,0,.16-.13L142,43.3a1,1,0,0,1,.16-.14.42.42,0,0,1,.22,0h.87l-2,2.14-.15.16a1,1,0,0,1-.17.12l.18.15a1.73,1.73,0,0,1,.15.2l2.14,2.7h-.87a.42.42,0,0,1-.2,0,.52.52,0,0,1-.16-.14l-1.8-2.24a.37.37,0,0,0-.16-.15.54.54,0,0,0-.25,0h-.26v2.62h-1v-8Z"/><path class="cls-2" d="M148.46,48.58H148a.45.45,0,0,1-.22,0,.23.23,0,0,1-.12-.18l-.11-.51a4.32,4.32,0,0,1-.42.35,2.34,2.34,0,0,1-.43.26,2.46,2.46,0,0,1-.48.16,3.45,3.45,0,0,1-.57,0,1.93,1.93,0,0,1-.6-.09,1.42,1.42,0,0,1-.48-.27,1.17,1.17,0,0,1-.33-.45,1.6,1.6,0,0,1-.12-.65,1.2,1.2,0,0,1,.18-.62,1.49,1.49,0,0,1,.57-.54,3.86,3.86,0,0,1,1-.38,7,7,0,0,1,1.57-.15v-.43a1.5,1.5,0,0,0-.27-1,1,1,0,0,0-.81-.33,1.69,1.69,0,0,0-.59.1,2,2,0,0,0-.42.19l-.3.2a.45.45,0,0,1-.25.09.25.25,0,0,1-.17,0,.46.46,0,0,1-.12-.12l-.17-.31a3.26,3.26,0,0,1,1-.66,3.07,3.07,0,0,1,1.16-.21,2.05,2.05,0,0,1,.81.15,1.63,1.63,0,0,1,.6.42,1.81,1.81,0,0,1,.37.65,2.86,2.86,0,0,1,.12.85v3.5ZM146,48a2.16,2.16,0,0,0,.46-.05,2.74,2.74,0,0,0,.4-.15,2,2,0,0,0,.36-.23,3.13,3.13,0,0,0,.33-.31V46.12a6,6,0,0,0-1.13.09,3,3,0,0,0-.76.22,1,1,0,0,0-.42.32.68.68,0,0,0-.14.41,1.07,1.07,0,0,0,.07.38.83.83,0,0,0,.19.26.92.92,0,0,0,.28.14A1.42,1.42,0,0,0,146,48Zm2.11-7.24-1.26,1.39a.4.4,0,0,1-.15.12.5.5,0,0,1-.19,0h-.57l.8-1.3a.41.41,0,0,1,.16-.18.48.48,0,0,1,.26-.06Z"/><path class="cls-2" d="M156.08,43.52a.71.71,0,0,1,0,.2.75.75,0,0,1-.1.17l-3,3.94h3v.75h-4.12v-.4a.5.5,0,0,1,0-.16,1.14,1.14,0,0,1,.1-.19l3-4H152v-.76h4.06v.41Z"/><path class="cls-2" d="M159.55,43a2.4,2.4,0,0,1,.9.16,2,2,0,0,1,.72.48,2.08,2.08,0,0,1,.47.76,2.84,2.84,0,0,1,.17,1,.68.68,0,0,1,0,.3.2.2,0,0,1-.19.08h-3.64a2.93,2.93,0,0,0,.14.9,1.71,1.71,0,0,0,.35.64,1.39,1.39,0,0,0,.54.39,2,2,0,0,0,.71.12,1.91,1.91,0,0,0,.62-.08,3.49,3.49,0,0,0,.45-.18l.32-.18a.4.4,0,0,1,.22-.09.2.2,0,0,1,.18.09l.27.36a1.89,1.89,0,0,1-.42.37,2,2,0,0,1-.53.26,4,4,0,0,1-.59.16,4,4,0,0,1-.6,0,2.71,2.71,0,0,1-1-.19,2.39,2.39,0,0,1-.83-.56,2.6,2.6,0,0,1-.54-.92,3.68,3.68,0,0,1-.2-1.25,3.08,3.08,0,0,1,.18-1.07,2.38,2.38,0,0,1,.5-.86,2.27,2.27,0,0,1,.81-.58A2.76,2.76,0,0,1,159.55,43Zm0,.71a1.47,1.47,0,0,0-1.1.4,1.88,1.88,0,0,0-.5,1.11h3a2.3,2.3,0,0,0-.09-.61,1.36,1.36,0,0,0-.71-.8A1.5,1.5,0,0,0,159.57,43.73Z"/><path class="cls-2" d="M163.17,48.58V43.11h.57a.25.25,0,0,1,.26.19l.06.57a2.77,2.77,0,0,1,.68-.61,1.61,1.61,0,0,1,.88-.24,1.27,1.27,0,0,1,.89.31,1.69,1.69,0,0,1,.5.83,1.6,1.6,0,0,1,.3-.51,1.44,1.44,0,0,1,.42-.36,2.13,2.13,0,0,1,.49-.21,2.42,2.42,0,0,1,.54-.06,1.92,1.92,0,0,1,.77.14,1.51,1.51,0,0,1,.57.4,1.93,1.93,0,0,1,.36.65,3,3,0,0,1,.12.88v3.49h-1V45.09a1.44,1.44,0,0,0-.28-1,1,1,0,0,0-.82-.34,1.13,1.13,0,0,0-.45.09.94.94,0,0,0-.37.25,1,1,0,0,0-.26.4,1.72,1.72,0,0,0-.1.58v3.48h-1V45.1a1.54,1.54,0,0,0-.26-1,1,1,0,0,0-.78-.32,1.21,1.21,0,0,0-.66.19,2.27,2.27,0,0,0-.56.52v4.08Z"/><path class="cls-2" d="M175.3,44a.21.21,0,0,1-.2.12.35.35,0,0,1-.18-.06l-.26-.14a2.65,2.65,0,0,0-.35-.13,1.75,1.75,0,0,0-.48-.06,1.46,1.46,0,0,0-.44.06,1.2,1.2,0,0,0-.34.17.67.67,0,0,0-.2.25.65.65,0,0,0-.08.31.51.51,0,0,0,.12.35,1,1,0,0,0,.33.25,2.34,2.34,0,0,0,.45.18l.52.16.52.2a2.32,2.32,0,0,1,.46.27,1.26,1.26,0,0,1,.32.4,1.22,1.22,0,0,1,.12.56,1.78,1.78,0,0,1-.14.7,1.48,1.48,0,0,1-.4.56,1.87,1.87,0,0,1-.65.37,2.62,2.62,0,0,1-.88.14,2.87,2.87,0,0,1-1-.19,2.49,2.49,0,0,1-.79-.48l.23-.36a.36.36,0,0,1,.1-.11.34.34,0,0,1,.16,0,.37.37,0,0,1,.2.08l.26.17a2.29,2.29,0,0,0,.38.16,1.43,1.43,0,0,0,.54.08,1.51,1.51,0,0,0,.5-.07,1.19,1.19,0,0,0,.35-.2.78.78,0,0,0,.27-.63.6.6,0,0,0-.12-.38,1,1,0,0,0-.32-.25,2.45,2.45,0,0,0-.46-.19l-.52-.16a4.65,4.65,0,0,1-.52-.2,1.77,1.77,0,0,1-.46-.28,1.3,1.3,0,0,1-.32-.41,1.4,1.4,0,0,1-.12-.6A1.38,1.38,0,0,1,172,44a1.55,1.55,0,0,1,.38-.51,1.76,1.76,0,0,1,.6-.35,2.41,2.41,0,0,1,.83-.13,2.7,2.7,0,0,1,1,.17,2.34,2.34,0,0,1,.74.47Z"/><path class="cls-2" d="M178,40.62V45.3h.25l.18,0a.52.52,0,0,0,.15-.13l1.73-1.85.16-.14a.45.45,0,0,1,.22,0h.87l-2,2.14-.15.16-.16.12.17.15a1.73,1.73,0,0,1,.15.2l2.14,2.7h-.86a.43.43,0,0,1-.21,0,.67.67,0,0,1-.16-.14l-1.8-2.24a.32.32,0,0,0-.16-.15.52.52,0,0,0-.24,0H178v2.62h-1v-8Z"/><path class="cls-2" d="M186.79,48.58h-.42a.49.49,0,0,1-.23,0c-.06,0-.09-.09-.12-.18l-.1-.51c-.15.13-.29.25-.43.35a2.34,2.34,0,0,1-.43.26,2.46,2.46,0,0,1-.48.16,3.27,3.27,0,0,1-.57,0,2,2,0,0,1-.6-.09,1.42,1.42,0,0,1-.48-.27,1.17,1.17,0,0,1-.33-.45,1.6,1.6,0,0,1-.12-.65,1.2,1.2,0,0,1,.18-.62,1.57,1.57,0,0,1,.57-.54,4,4,0,0,1,1-.38,7,7,0,0,1,1.57-.15v-.43a1.5,1.5,0,0,0-.27-1,1,1,0,0,0-.81-.33,1.69,1.69,0,0,0-.59.1,1.74,1.74,0,0,0-.41.19l-.31.2a.4.4,0,0,1-.25.09.26.26,0,0,1-.17,0,.31.31,0,0,1-.11-.12l-.18-.31a3.38,3.38,0,0,1,1-.66,3.11,3.11,0,0,1,1.16-.21,2.1,2.1,0,0,1,.82.15,1.71,1.71,0,0,1,.6.42,1.79,1.79,0,0,1,.36.65,2.57,2.57,0,0,1,.13.85v3.5ZM184.3,48a2.16,2.16,0,0,0,.46-.05,2.74,2.74,0,0,0,.4-.15,2.53,2.53,0,0,0,.68-.54V46.12a6.08,6.08,0,0,0-1.13.09,2.81,2.81,0,0,0-.75.22,1,1,0,0,0-.43.32.67.67,0,0,0-.13.41.89.89,0,0,0,.07.38.83.83,0,0,0,.19.26.82.82,0,0,0,.28.14A1.36,1.36,0,0,0,184.3,48Zm2.1-7.24-1.26,1.39a.4.4,0,0,1-.15.12.5.5,0,0,1-.19,0h-.57L185,41a.48.48,0,0,1,.16-.18.49.49,0,0,1,.27-.06Z"/><path class="cls-2" d="M191.59,40.62V45.3h.25l.18,0a.42.42,0,0,0,.15-.13l1.73-1.85.16-.14a.48.48,0,0,1,.22,0h.87l-2,2.14-.15.16a1,1,0,0,1-.16.12l.17.15a1.73,1.73,0,0,1,.15.2l2.14,2.7h-.86a.46.46,0,0,1-.21,0,.94.94,0,0,1-.16-.14l-1.79-2.24a.38.38,0,0,0-.17-.15.49.49,0,0,0-.24,0h-.27v2.62h-1v-8Z"/><path class="cls-2" d="M196.38,48.58V43.11H197a.23.23,0,0,1,.25.19l.08.6a3.27,3.27,0,0,1,.8-.64,2.08,2.08,0,0,1,1-.24,2,2,0,0,1,.79.15,1.6,1.6,0,0,1,.57.42,1.93,1.93,0,0,1,.35.65,2.87,2.87,0,0,1,.11.85v3.49h-1V45.09a1.46,1.46,0,0,0-.28-1,1.07,1.07,0,0,0-.87-.35,1.62,1.62,0,0,0-.8.21,2.7,2.7,0,0,0-.68.56v4Z"/><path class="cls-2" d="M203.81,41.39a.58.58,0,0,1-.06.26,1.07,1.07,0,0,1-.15.22.64.64,0,0,1-.22.14.58.58,0,0,1-.26.06.72.72,0,0,1-.48-.2,1.07,1.07,0,0,1-.15-.22.58.58,0,0,1-.06-.26.63.63,0,0,1,.06-.27.66.66,0,0,1,.15-.22.51.51,0,0,1,.21-.15.6.6,0,0,1,.27-.06.58.58,0,0,1,.26.06.54.54,0,0,1,.22.15.57.57,0,0,1,.15.22A.82.82,0,0,1,203.81,41.39Zm-.22,1.72v5.47h-1V43.11Z"/><path class="cls-2" d="M205.41,48.58v-8h1v3.22a3.13,3.13,0,0,1,.78-.6,2.18,2.18,0,0,1,1-.22,2,2,0,0,1,.79.15,1.63,1.63,0,0,1,.58.42,1.87,1.87,0,0,1,.34.66,2.82,2.82,0,0,1,.12.85v3.48h-1V45.1a1.48,1.48,0,0,0-.28-1,1.06,1.06,0,0,0-.87-.34,1.72,1.72,0,0,0-.8.2,2.94,2.94,0,0,0-.68.56v4Z"/><path class="cls-2" d="M213.76,43a2.72,2.72,0,0,1,1.09.2,2.35,2.35,0,0,1,.82.56,2.55,2.55,0,0,1,.52.89,3.59,3.59,0,0,1,.18,1.17,3.49,3.49,0,0,1-.18,1.16,2.38,2.38,0,0,1-.52.89,2.35,2.35,0,0,1-.82.56,3,3,0,0,1-2.17,0,2.26,2.26,0,0,1-.82-.56,2.38,2.38,0,0,1-.52-.89,3.25,3.25,0,0,1-.19-1.16,3.34,3.34,0,0,1,.19-1.17,2.55,2.55,0,0,1,.52-.89,2.35,2.35,0,0,1,.82-.56A2.67,2.67,0,0,1,213.76,43Zm0,4.88a1.4,1.4,0,0,0,1.21-.54,3.09,3.09,0,0,0,0-3,1.41,1.41,0,0,0-1.21-.55,1.73,1.73,0,0,0-.71.14,1.42,1.42,0,0,0-.51.4,2,2,0,0,0-.3.66,3.72,3.72,0,0,0-.1.87,3.85,3.85,0,0,0,.1.87,1.9,1.9,0,0,0,.3.64,1.32,1.32,0,0,0,.51.4A1.58,1.58,0,0,0,213.76,47.9Z"/><path class="cls-2" d="M216.85,43.11h.79a.36.36,0,0,1,.19,0,.49.49,0,0,1,.11.14l1.38,3.53a2.52,2.52,0,0,1,.12.39c0,.13.06.26.08.38l.09-.38a2,2,0,0,1,.13-.39l1.4-3.53a.3.3,0,0,1,.11-.14.24.24,0,0,1,.18,0h.75L220,48.58h-.88Z"/><path class="cls-2" d="M223.2,48.58V43.11h.58a.23.23,0,0,1,.25.19l.08.6a3.27,3.27,0,0,1,.8-.64,2.08,2.08,0,0,1,1-.24,2,2,0,0,1,.79.15,1.6,1.6,0,0,1,.57.42,1.93,1.93,0,0,1,.35.65,2.87,2.87,0,0,1,.11.85v3.49h-1V45.09a1.46,1.46,0,0,0-.28-1,1.07,1.07,0,0,0-.87-.35,1.56,1.56,0,0,0-.79.21,2.58,2.58,0,0,0-.69.56v4Z"/><path class="cls-2" d="M233.36,48.58h-.43a.45.45,0,0,1-.22,0,.23.23,0,0,1-.12-.18l-.11-.51a4.32,4.32,0,0,1-.42.35,2.34,2.34,0,0,1-.43.26,2.46,2.46,0,0,1-.48.16,3.45,3.45,0,0,1-.57,0,1.93,1.93,0,0,1-.6-.09,1.42,1.42,0,0,1-.48-.27,1.17,1.17,0,0,1-.33-.45,1.6,1.6,0,0,1-.12-.65,1.2,1.2,0,0,1,.18-.62,1.49,1.49,0,0,1,.57-.54,4,4,0,0,1,1-.38,7,7,0,0,1,1.57-.15v-.43a1.5,1.5,0,0,0-.27-1,1,1,0,0,0-.81-.33,1.69,1.69,0,0,0-.59.1,2,2,0,0,0-.42.19l-.3.2a.45.45,0,0,1-.25.09.25.25,0,0,1-.17,0,.46.46,0,0,1-.12-.12l-.17-.31a3.26,3.26,0,0,1,1-.66,3.07,3.07,0,0,1,1.16-.21,2,2,0,0,1,.81.15,1.63,1.63,0,0,1,.6.42,1.81,1.81,0,0,1,.37.65,2.86,2.86,0,0,1,.12.85v3.5Zm-2.5-.59a1.71,1.71,0,0,0,.86-.2,1.69,1.69,0,0,0,.36-.23,3.13,3.13,0,0,0,.33-.31V46.12a6.08,6.08,0,0,0-1.13.09,2.81,2.81,0,0,0-.75.22,1,1,0,0,0-.43.32.67.67,0,0,0-.13.41.89.89,0,0,0,.07.38.7.7,0,0,0,.19.26.82.82,0,0,0,.28.14A1.34,1.34,0,0,0,230.86,48Z"/><rect class="cls-2" x="239.73" y="41.62" width="1.43" height="7.03"/><rect class="cls-2" x="248.52" y="41.62" width="1.43" height="7.03"/><path class="cls-2" d="M241.59,48.65v0l0,0Zm4.62-7-4.59,7h1.56l4.61-7Z"/></svg>